<svg width="23" height="24" viewBox="0 0 23 24" fill="none" xmlns="http://www.w3.org/2000/svg">
<g id="vuesax/outline/arrow-left">
<g id="arrow-left">
<path id="Vector" d="M10.9372 18.82C10.72 18.82 10.5029 18.75 10.3314 18.6L3.39429 12.53C3.06286 12.24 3.06286 11.76 3.39429 11.47L10.3314 5.4C10.6629 5.11 11.2114 5.11 11.5429 5.4C11.8743 5.69 11.8743 6.17 11.5429 6.46L5.21144 12L11.5429 17.54C11.8743 17.83 11.8743 18.31 11.5429 18.6C11.3829 18.75 11.1543 18.82 10.9372 18.82Z" fill="white"/>
<path id="Vector_2" d="M19.7786 12.75H4.03858C3.65514 12.75 3.33716 12.41 3.33716 12C3.33716 11.59 3.65514 11.25 4.03858 11.25H19.7786C20.162 11.25 20.48 11.59 20.48 12C20.48 12.41 20.162 12.75 19.7786 12.75Z" fill="white"/>
</g>
</g>
</svg>
