<svg width="88" height="81" viewBox="0 0 88 81" fill="none" xmlns="http://www.w3.org/2000/svg">
<g id="Layer_1" clip-path="url(#clip0_848_1115)">
<g id="Group">
<path id="Vector" d="M59.5318 70.2394L59.6533 70.2143C59.6341 70.2017 59.615 70.1907 59.5942 70.1781C59.5734 70.1985 59.5526 70.219 59.5318 70.2394Z" fill="#36454F"/>
<path id="Vector_2" d="M36.8974 36.2104C36.8574 36.1978 36.8222 36.2104 36.7902 36.2324L36.8974 36.2104Z" fill="#36454F"/>
<path id="Vector_3" d="M17.4452 20.3715C17.4452 21.2491 17.0598 22.0307 16.4521 22.5827C16.4569 22.5827 16.4617 22.5843 16.4665 22.5859C16.4185 22.6598 16.3898 22.7432 16.3642 22.7416C16.3354 22.74 16.3082 22.7353 16.2794 22.729C15.9132 23.0168 15.4814 23.2291 15.0113 23.3361L1.53359 26.3494V10.9603L1.50641 1.16382C1.50641 1.16382 1.49681 1.15281 1.49201 1.14652C1.49681 1.14652 1.50161 1.14966 1.50641 1.15123L1.50321 0L0 0.198163V40.8342L7.36092 39.2206C7.30495 38.9233 7.64237 38.7032 7.70954 38.4452C7.7751 38.7016 7.81988 38.9422 7.73512 39.1388L8.77457 38.9108C11.1541 38.3918 13.8503 37.975 15.8588 35.2715V36.9873C15.8588 38.9108 17.6563 40.3152 19.5593 39.8984L32.8531 37.0707C32.7555 37.0015 32.6612 36.9323 32.5492 36.8521C32.8707 36.8646 32.9634 36.8694 33.053 37.0282L35.199 36.5721C35.1735 36.558 35.1527 36.4903 35.1287 36.451C35.2182 36.4274 35.3078 36.3944 35.3989 36.3881C35.4197 36.3881 35.4453 36.4479 35.4821 36.5124L36.3808 36.3205C36.2881 36.2812 36.1905 36.2529 36.1457 36.2827C35.8307 36.4966 35.8851 36.0877 35.7316 36.0704C35.9027 35.6269 36.1905 35.9823 36.4288 35.9761C36.7262 35.9682 37.0253 35.9745 37.5578 35.9745C37.4666 36.028 37.3851 36.0783 37.3131 36.1223L40.7897 35.3831C40.8249 35.3548 40.8697 35.3171 40.924 35.2683C40.9144 35.3014 40.9064 35.3312 40.8968 35.3611L44.674 34.5575C44.722 34.2193 44.818 34.169 45.1602 34.1611C45.48 34.1548 45.6575 34.0904 45.7087 33.7774C45.8254 33.7978 45.947 33.8088 46.0573 33.8482C46.0797 33.856 46.0445 33.9787 46.0637 34.0416C46.0829 34.1108 46.1037 34.18 46.1245 34.2492L48.5808 33.7271V26.4784C48.5504 26.5083 48.5168 26.5413 48.4784 26.579C48.2354 26.4595 47.9763 26.3337 47.6165 26.156C47.882 26.0254 48.0483 25.9437 48.2082 25.865C48.3233 25.9688 48.4513 26.0852 48.5808 26.2016V17.7215C48.5808 11.8977 43.1884 7.5821 37.4267 8.82927L31.505 10.1299V23.1316L27.6286 23.9809C27.6462 24.0202 27.6638 24.0595 27.6814 24.1004C27.4383 24.1382 27.2816 23.9888 27.0785 24.157C26.9298 24.2797 26.6084 24.1806 26.4261 24.286C26.2789 24.3709 26.2262 24.6147 26.1318 24.7861C26.0791 24.7641 26.0263 24.7421 25.9735 24.7201C26.0215 24.5832 26.0711 24.448 26.1206 24.3096L18.926 25.8839V19.4357C18.8653 19.42 18.7965 19.3933 18.7213 19.3618C18.7885 19.3256 18.8573 19.2895 18.926 19.2533V15.798H17.4452V20.3731V20.3715ZM0.233477 32.9203C0.211089 32.8746 0.179106 32.8322 0.169511 32.7834C0.166312 32.7661 0.211089 32.7394 0.233477 32.7174C0.259063 32.7614 0.283051 32.8054 0.307038 32.8479C0.279852 32.8746 0.255865 32.8982 0.233477 32.9203ZM0.441367 3.21307C0.418979 3.16747 0.386996 3.125 0.377401 3.07625C0.374203 3.05895 0.418979 3.03221 0.441367 3.00862C0.463755 3.05423 0.495739 3.09669 0.505334 3.14545C0.508532 3.16275 0.463755 3.18948 0.441367 3.21307ZM0.957895 2.89696C0.916317 2.92841 0.876338 2.95987 0.83476 2.99132C0.821967 2.94886 0.788384 2.87808 0.801178 2.86865C0.844355 2.83562 0.905123 2.82618 0.957895 2.80731V2.89853V2.89696ZM1.07783 2.62016C1.10182 2.64375 1.145 2.67678 1.1418 2.68464C1.11781 2.72868 1.08103 2.76642 1.04905 2.80731C1.01866 2.77743 0.988279 2.74598 0.956296 2.71609C0.996275 2.68307 1.03625 2.65161 1.07623 2.62016H1.07783ZM0.977085 23.2386C1.02026 23.226 1.09222 23.193 1.10182 23.2055C1.1354 23.248 1.145 23.3078 1.16419 23.3597H1.07144C1.03945 23.3188 1.00747 23.2795 0.975486 23.2386H0.977085ZM1.28892 23.5405C1.24414 23.5169 1.20576 23.4808 1.16419 23.4493C1.19457 23.4194 1.22495 23.3895 1.25694 23.3581C1.28892 23.3974 1.3225 23.4367 1.35449 23.476C1.3305 23.4996 1.29692 23.5421 1.28892 23.539V23.5405ZM2.32038 31.2862C2.18125 31.1635 2.0837 31.0802 1.9046 30.9229C2.16206 30.8411 2.45471 30.6744 2.52827 30.7405C2.79693 30.9827 2.44511 31.0959 2.32038 31.2862ZM3.39821 39.4266C3.32305 39.3794 3.23829 39.3511 3.23989 39.326C3.24629 39.2363 3.27987 39.1482 3.30386 39.0602C3.34863 39.0853 3.43179 39.1089 3.43339 39.1372C3.43819 39.2269 3.4142 39.3165 3.39821 39.4266ZM4.12902 39.3967C4.11143 39.3999 4.08425 39.3558 4.06026 39.3338C4.10663 39.3118 4.14981 39.2803 4.19939 39.2709C4.21698 39.2678 4.24416 39.3118 4.26815 39.3338C4.22177 39.3558 4.1786 39.3873 4.12902 39.3967ZM5.14129 28.4443C4.97818 28.4018 4.71272 28.5748 4.68553 28.2461C4.68073 28.1911 4.70952 28.1046 4.75109 28.081C4.99257 27.941 5.09491 28.158 5.23404 28.2791C5.25803 28.2996 5.27722 28.3248 5.33319 28.3845C5.20046 28.4286 5.16688 28.4521 5.14129 28.4459V28.4443ZM6.95793 39.1797H6.54375V39.0775H6.95793V39.1797ZM12.854 26.4107C12.8796 26.4548 12.9036 26.4988 12.9276 26.5413C12.9004 26.568 12.8764 26.5916 12.854 26.6136C12.8316 26.568 12.7997 26.5256 12.7901 26.4768C12.7869 26.4595 12.8316 26.4328 12.854 26.4107ZM11.8194 27.8356C11.8418 27.8812 11.8737 27.9237 11.8833 27.9725C11.8865 27.9898 11.8418 28.0165 11.8194 28.0401C11.797 27.9945 11.765 27.952 11.7538 27.9033C11.7506 27.886 11.7954 27.8592 11.8194 27.8356ZM9.98673 36.8175C10.0139 36.8442 10.0379 36.8678 10.0603 36.8898C10.0139 36.9118 9.97074 36.9433 9.92117 36.9527C9.90358 36.9559 9.87639 36.9118 9.854 36.8898C9.89878 36.8646 9.94356 36.8411 9.98673 36.8175ZM7.54962 29.8629C7.48565 29.8582 7.38491 29.7575 7.37851 29.6946C7.34972 29.3596 7.61678 29.4901 7.78629 29.4618C7.75751 29.627 7.89024 29.8912 7.54962 29.8629ZM7.95261 29.5263C7.89344 29.4776 7.83907 29.4241 7.67116 29.2763C7.92382 29.3109 8.05335 29.3297 8.18289 29.347C8.1573 29.4713 8.32201 29.8283 7.95261 29.5279V29.5263ZM8.25165 34.1077V33.1577H8.82575C8.64664 33.4534 8.49472 33.7066 8.25165 34.1077ZM9.02724 28.0904H9.44142V28.1926H9.02724V28.0904ZM9.4846 37.5708C9.45901 37.5378 9.43503 37.5047 9.40944 37.4701C9.55176 37.4072 9.69409 37.3459 9.78044 37.3082C9.82362 37.3302 9.95795 37.4009 10.2778 37.5708H9.4846ZM10.7591 26.3148C10.8455 26.3541 10.9862 26.4186 11.2629 26.5444C10.8833 26.5623 10.7154 26.4857 10.7591 26.3148ZM10.7783 28.0134C11.0262 28.1172 11.2725 28.2194 11.5347 28.3295C11.1445 28.6314 10.9126 28.3908 10.7783 28.0134ZM11.7858 36.3441C11.7682 36.3472 11.741 36.3032 11.717 36.2812C11.7618 36.256 11.8066 36.2324 11.8498 36.2088C11.8769 36.2356 11.9009 36.2591 11.9233 36.2812C11.8769 36.3032 11.8338 36.3346 11.7842 36.3441H11.7858ZM12.547 36.5013C12.7213 36.3425 12.8013 36.0453 13.1643 36.2623C12.99 36.4196 12.91 36.7184 12.547 36.5013ZM13.4761 31.9058C13.4537 31.8838 13.4073 31.8555 13.4121 31.8382C13.4233 31.791 13.4537 31.747 13.4761 31.7014C13.4985 31.7234 13.5225 31.747 13.5497 31.7737C13.5257 31.8162 13.5017 31.8602 13.4761 31.9043V31.9058ZM14.5411 35.5388C14.498 35.5152 14.4532 35.4917 14.4084 35.4665C14.4308 35.4445 14.4596 35.3989 14.4772 35.4036C14.5251 35.4146 14.5699 35.4445 14.6163 35.4665C14.5939 35.4885 14.5699 35.5121 14.5427 35.5388H14.5411ZM15.3439 30.7263C15.3295 30.6948 15.2991 30.6225 15.2672 30.5502C15.3247 30.5266 15.3887 30.4747 15.4351 30.4872C15.5022 30.5045 15.555 30.5706 15.6142 30.6146C15.5582 30.6382 15.5006 30.6618 15.3423 30.7263H15.3439ZM15.9228 30.8505C15.9052 30.8537 15.878 30.8097 15.8556 30.7876C15.9004 30.7625 15.9452 30.7389 15.9884 30.7153C16.0156 30.742 16.0395 30.7656 16.0619 30.7876C16.0156 30.8097 15.9724 30.8411 15.9228 30.8505ZM16.4553 37.5582C16.4169 37.5849 16.3786 37.6101 16.3418 37.6368C16.2874 37.4985 16.2346 37.3585 16.1867 37.2358C16.2027 37.2327 16.337 37.2075 16.4841 37.1776C16.4729 37.3192 16.4649 37.4387 16.4553 37.5598V37.5582ZM16.5673 37.1965C16.5369 37.1666 16.5049 37.1367 16.4745 37.1053C16.5145 37.0738 16.5545 37.0408 16.5944 37.0093C16.6184 37.0329 16.6632 37.066 16.6584 37.0738C16.6344 37.1179 16.5992 37.1556 16.5673 37.1965ZM16.8951 22.5513C16.9127 22.4852 16.9782 22.4333 17.0246 22.3751C17.0486 22.4318 17.0726 22.4868 17.1382 22.6425C17.1062 22.6567 17.0326 22.6865 16.9591 22.718C16.9351 22.6629 16.8823 22.5985 16.8951 22.5529V22.5513ZM17.2277 30.2482C17.1845 30.2246 17.1398 30.201 17.095 30.1758C17.1174 30.1538 17.1462 30.1082 17.1622 30.1129C17.2101 30.1239 17.2549 30.1538 17.3013 30.1758C17.2789 30.1979 17.2549 30.2215 17.2277 30.2482ZM47.2007 33.6374C47.4342 33.5651 47.5893 33.5163 47.7076 33.4786C47.7796 33.7412 47.6341 33.7947 47.2007 33.6374ZM47.4982 26.1717C47.5221 26.6828 47.5109 26.9266 47.1096 26.7615C47.2167 26.5995 47.3111 26.4548 47.4982 26.1717ZM45.1298 23.767C45.1554 23.811 45.1794 23.8551 45.2034 23.8975C45.1762 23.9243 45.1522 23.9479 45.1298 23.9699C45.1074 23.9243 45.0754 23.8818 45.0658 23.8331C45.0626 23.8158 45.1074 23.789 45.1298 23.767ZM32.3957 24.978C32.3765 24.9922 32.2102 24.8836 32.2102 24.8317C32.2102 24.7358 32.2854 24.6414 32.3605 24.4732C32.4949 24.6147 32.6132 24.6981 32.6004 24.7327C32.5636 24.8286 32.4821 24.9167 32.3957 24.978ZM32.9234 34.9585C32.9011 34.9129 32.8691 34.8704 32.8595 34.8217C32.8563 34.8044 32.9011 34.7776 32.9234 34.754C32.9458 34.7997 32.9778 34.8421 32.9874 34.8909C32.9906 34.9082 32.9458 34.9349 32.9234 34.9585ZM32.9234 34.5512C32.9011 34.5056 32.8691 34.4631 32.8595 34.4143C32.8563 34.397 32.9011 34.3703 32.9234 34.3467C32.9458 34.3923 32.9778 34.4348 32.9874 34.4835C32.9906 34.5008 32.9458 34.5276 32.9234 34.5512ZM35.207 35.7653C35.1783 35.7637 35.1543 35.682 35.1287 35.6379C35.2182 35.6143 35.3078 35.5813 35.3989 35.575C35.4229 35.5734 35.4533 35.6552 35.5013 35.7307C35.3893 35.7464 35.2966 35.77 35.207 35.7653ZM35.8515 27.1782C35.7987 27.2238 35.6788 27.2018 35.5876 27.1971C35.5636 27.1971 35.5413 27.1546 35.5173 27.1311C35.5589 27.0854 35.5924 27.021 35.6452 26.9974C35.7316 26.9581 35.8307 26.9439 35.9251 26.9203C35.9027 27.01 35.9091 27.1295 35.8531 27.1782H35.8515ZM37.1084 26.697C36.6607 26.5366 36.4192 26.4485 36.1282 26.3447C36.432 25.9641 36.6831 25.6511 36.9293 25.3429C37.6617 25.8163 36.4896 26.1292 37.11 26.697H37.1084ZM38.6468 24.3426C38.6436 24.308 38.6404 24.2718 38.6388 24.2357C38.8243 24.2105 39.0098 24.1869 39.1953 24.1618C39.1953 24.2215 39.1953 24.2813 39.1969 24.3426H38.6484H38.6468ZM39.3393 29.465C39.3169 29.443 39.2929 29.4194 39.2657 29.3926C39.2897 29.3502 39.3153 29.3061 39.3393 29.2621C39.3616 29.2841 39.408 29.3124 39.4032 29.3297C39.392 29.3769 39.3616 29.4209 39.3393 29.4666V29.465ZM39.5104 35.3281C39.4928 35.3312 39.4656 35.2872 39.4432 35.2636C39.4896 35.2416 39.5328 35.2101 39.5823 35.2007C39.5999 35.1976 39.6271 35.2416 39.6495 35.2652C39.6031 35.2872 39.5599 35.3187 39.5104 35.3281ZM39.7534 31.2972C39.7311 31.2752 39.6847 31.2469 39.6895 31.2311C39.7007 31.184 39.7311 31.1399 39.7534 31.0943C39.7758 31.1163 39.7998 31.1399 39.827 31.1667C39.803 31.2091 39.779 31.2532 39.7534 31.2972ZM39.7055 28.567C39.6383 28.4915 39.8126 28.2068 39.8942 27.9662C40.0525 28.1313 40.142 28.2257 40.2716 28.3594C40.0669 28.4883 39.9517 28.8422 39.7055 28.567ZM39.6111 24.0753C39.8542 23.5154 40.3515 23.9007 40.6794 23.7985C40.4182 24.0459 40.0621 24.1382 39.6111 24.0753ZM41.4597 29.465H41.3558V29.0576H41.4597V29.465ZM44.5413 24.4071C44.5685 24.4338 44.5925 24.4574 44.6149 24.4794C44.5685 24.5015 44.5253 24.5329 44.4757 24.5424C44.4582 24.5455 44.431 24.5015 44.407 24.4794C44.4518 24.4543 44.4965 24.4307 44.5397 24.4071H44.5413ZM43.3036 11.6334C43.2476 11.5784 43.1421 11.4746 43.0797 11.4133C43.2684 11.4038 43.343 11.4772 43.3036 11.6334ZM43.3739 14.1026C43.3276 14.1246 43.2844 14.1561 43.2348 14.1655C43.2172 14.1687 43.19 14.1246 43.1676 14.1026C43.2124 14.0774 43.2572 14.0539 43.3004 14.0303C43.3276 14.057 43.3515 14.0806 43.3739 14.1026ZM43.2428 23.9023C43.0237 23.9337 42.8878 23.9526 42.7535 23.9715V24.0627C42.7135 24.0941 42.6719 24.1256 42.6303 24.157C42.6175 24.1146 42.5839 24.0438 42.5967 24.0344C42.6399 24.0013 42.7007 23.9919 42.7535 23.973C42.8334 23.9054 42.907 23.8268 42.9965 23.7764C43.0237 23.7607 43.0973 23.8268 43.2428 23.9038V23.9023ZM42.6143 10.987C42.6623 10.9981 42.7071 11.0279 42.7535 11.05C42.7311 11.072 42.7071 11.0956 42.6799 11.1223C42.6367 11.0987 42.5919 11.0751 42.5472 11.05C42.5696 11.0279 42.5983 10.9823 42.6159 10.987H42.6143ZM42.4832 14.0507C42.5168 14.0932 42.5264 14.1529 42.5456 14.2048C42.6143 14.2835 42.6943 14.3558 42.7455 14.4439C42.7615 14.4706 42.6959 14.543 42.6159 14.6861C42.5839 14.4706 42.5648 14.3369 42.5456 14.2048H42.4528C42.4208 14.1639 42.3889 14.1246 42.3569 14.0837C42.4 14.0712 42.472 14.0381 42.4816 14.0507H42.4832ZM42.472 24.4087C42.4992 24.4354 42.5232 24.459 42.5456 24.481C42.4992 24.503 42.456 24.5345 42.4064 24.5439C42.3889 24.5471 42.3617 24.503 42.3393 24.481C42.3841 24.4559 42.4288 24.4323 42.472 24.4087ZM42.2034 13.2203C42.2481 13.2455 42.3313 13.2691 42.3329 13.2974C42.3377 13.3855 42.3137 13.4767 42.2977 13.5868C42.2209 13.5396 42.1378 13.5097 42.1394 13.4861C42.1458 13.3965 42.1794 13.3084 42.2034 13.2203ZM42.029 15.8326C42.0514 15.8782 42.0834 15.9207 42.093 15.9694C42.0962 15.9867 42.0514 16.0135 42.029 16.0371C42.0035 15.993 41.9795 15.949 41.9555 15.9065C41.9827 15.8798 42.0067 15.8562 42.029 15.8342V15.8326ZM41.786 33.5729C41.8339 33.5839 41.8787 33.6138 41.9251 33.6358C41.9027 33.6579 41.8787 33.6814 41.8515 33.7082C41.8084 33.6846 41.7636 33.661 41.7188 33.6358C41.7412 33.6138 41.77 33.5682 41.7876 33.5729H41.786ZM41.5029 26.2582C41.3654 26.535 41.1399 26.428 40.8089 26.3117C41.06 26.1843 41.2359 26.0962 41.4102 26.0081C41.4438 26.0931 41.5301 26.2031 41.5029 26.2582ZM41.3382 16.5403C41.4294 16.7008 41.5237 16.8046 41.5013 16.8423C41.4485 16.9304 41.3414 16.9854 41.2566 17.0546C41.2039 16.987 41.0967 16.9084 41.1095 16.8565C41.1335 16.7621 41.2263 16.685 41.3366 16.5419L41.3382 16.5403ZM40.996 19.0881C41.0184 19.1338 41.0504 19.1762 41.06 19.225C41.0632 19.2423 41.0184 19.269 40.9944 19.291C40.972 19.2454 40.94 19.203 40.9304 19.1542C40.9272 19.1369 40.972 19.1102 40.996 19.0881ZM41.1751 23.6994C40.956 23.7308 40.8201 23.7497 40.6857 23.7686C40.7657 23.7009 40.8393 23.6223 40.9288 23.572C40.956 23.5563 41.0296 23.6207 41.1751 23.6994ZM40.5754 15.4331C40.5994 15.4316 40.6298 15.5133 40.6778 15.5888C40.5658 15.6046 40.4731 15.6297 40.3835 15.6234C40.3547 15.6219 40.3307 15.5401 40.3051 15.496C40.3963 15.4725 40.4843 15.4394 40.5754 15.4331ZM36.5871 21.3843L36.5967 18.1256L39.2321 17.5154C40.0429 17.3267 40.8217 17.9322 40.8217 18.7532V21.1972L36.7166 22.0732C36.6495 22.0873 36.5855 22.037 36.5855 21.9694V21.4504C36.5743 21.4425 36.5615 21.4362 36.5487 21.4299C36.5615 21.4174 36.5743 21.4001 36.5871 21.3859V21.3843ZM36.1969 22.4538C35.989 22.6834 35.8035 22.8863 35.5972 23.1159C35.4517 22.8186 35.2934 22.4947 35.1015 22.1031C35.5093 22.2336 35.8131 22.3311 36.1969 22.4538ZM34.23 21.1311C34.2459 21.2412 34.2715 21.3324 34.2651 21.4205C34.2635 21.4488 34.1804 21.4724 34.1356 21.4976C34.1116 21.4095 34.078 21.3214 34.0716 21.2318C34.07 21.2082 34.1532 21.1783 34.23 21.1311ZM34.2044 24.0108C34.222 24.0076 34.2491 24.0517 34.2715 24.0753C34.2252 24.0973 34.182 24.1287 34.1324 24.1382C34.1148 24.1413 34.0876 24.0973 34.0652 24.0753C34.1116 24.0532 34.1548 24.0218 34.2044 24.0108ZM34.1324 35.2038C34.2955 35.2699 34.4698 35.3202 34.6138 35.413C34.6713 35.4492 34.7049 35.6033 34.6729 35.6662C34.6425 35.7276 34.4698 35.792 34.4362 35.7653C34.2763 35.6348 34.1436 35.4728 34.0013 35.3234C34.0444 35.2841 34.0876 35.2447 34.1324 35.2038ZM33.2593 20.6687H32.2118C32.6868 20.5476 32.9602 20.1466 33.2593 20.6687ZM31.9544 34.5622C31.9703 34.6723 31.9959 34.7635 31.9895 34.8516C31.9879 34.8799 31.9048 34.9035 31.86 34.9286C31.836 34.8405 31.8024 34.7525 31.796 34.6628C31.7944 34.6392 31.8776 34.6094 31.9544 34.5622ZM30.8285 25.0205C30.8717 25.0441 30.9165 25.0676 30.9613 25.0928C30.9389 25.1148 30.9101 25.1604 30.8925 25.1573C30.8445 25.1463 30.7998 25.1164 30.7534 25.0928C30.7758 25.0708 30.7998 25.0472 30.8269 25.0205H30.8285ZM30.4735 27.4629C30.5007 27.4896 30.5247 27.5132 30.5471 27.5352C30.5007 27.5573 30.4575 27.5887 30.408 27.5982C30.3904 27.6013 30.3632 27.5573 30.3392 27.5352C30.384 27.5101 30.4288 27.4865 30.4719 27.4629H30.4735ZM30.4799 28.2854C30.4975 28.2823 30.5247 28.3263 30.5471 28.3499C30.5007 28.3719 30.4575 28.4034 30.408 28.4128C30.3904 28.416 30.3632 28.3719 30.3392 28.3499C30.3856 28.3279 30.4288 28.2964 30.4783 28.2854H30.4799ZM30.2369 29.0608C30.2624 29.1048 30.2864 29.1489 30.3104 29.1913C30.2832 29.2181 30.2592 29.2417 30.2369 29.2637C30.2145 29.2181 30.1825 29.1756 30.1729 29.1268C30.1697 29.1095 30.2145 29.0828 30.2369 29.0592V29.0608ZM30.2305 36.1899C30.2544 36.1884 30.2848 36.2702 30.3328 36.3456C30.2209 36.3614 30.1281 36.3865 30.0386 36.3802C30.0098 36.3787 29.9858 36.2969 29.9602 36.2529C30.0498 36.2293 30.1393 36.1962 30.2305 36.1899ZM29.8834 28.6818C29.8994 28.9271 29.9154 29.1709 29.9378 29.5169C29.3333 29.2039 29.7523 28.9428 29.8834 28.6818ZM29.8163 31.1022C29.8403 31.1006 29.8707 31.1824 29.9186 31.2579C29.8067 31.2736 29.7139 31.2988 29.6244 31.2925C29.5956 31.2909 29.5716 31.2091 29.546 31.1651C29.6356 31.1415 29.7251 31.1085 29.8163 31.1022ZM27.9613 33.7412C27.9836 33.7632 28.03 33.7915 28.0268 33.8073C28.0156 33.8545 27.9852 33.8985 27.9613 33.9441C27.9389 33.9221 27.9149 33.8985 27.8877 33.8717C27.9117 33.8293 27.9373 33.7852 27.9613 33.7412ZM27.3488 35.7826C27.4383 35.7779 27.5311 35.8015 27.643 35.8172C27.5951 35.8911 27.5647 35.9745 27.5407 35.9729C27.4495 35.9666 27.36 35.9336 27.2704 35.91C27.296 35.866 27.32 35.7842 27.3488 35.7826ZM25.6745 37.3947C25.6345 37.434 25.5002 37.3789 25.2155 37.3412C25.4794 37.2012 25.6137 37.1304 25.8488 37.0062C25.7704 37.1965 25.7496 37.3223 25.6745 37.3947ZM25.8584 36.3488C25.8408 36.3519 25.8136 36.3079 25.7912 36.2859C25.836 36.2607 25.8808 36.2371 25.9239 36.2135C25.9511 36.2403 25.9751 36.2639 25.9975 36.2859C25.9511 36.3079 25.9079 36.3394 25.8584 36.3488ZM25.7912 33.8324C25.8216 33.8026 25.8536 33.7711 25.884 33.7412C25.9159 33.7805 25.9495 33.8199 25.9815 33.8592C25.9575 33.8828 25.9239 33.9252 25.9159 33.9221C25.8712 33.8985 25.8328 33.8639 25.7912 33.8324ZM26.2789 35.3407C26.2518 35.3139 26.2278 35.2903 26.2054 35.2683C26.2518 35.2463 26.2949 35.2149 26.3445 35.2054C26.3621 35.2023 26.3893 35.2463 26.4133 35.2683C26.3685 35.2935 26.3237 35.3171 26.2805 35.3407H26.2789ZM26.3797 29.7072C26.3829 29.7434 26.3861 29.778 26.3877 29.8141C26.2038 29.8393 26.0183 29.8629 25.8344 29.888C25.8344 29.8283 25.8312 29.7685 25.8312 29.7087H26.3797V29.7072ZM25.7224 33.5729C25.7448 33.6296 25.7672 33.6862 25.7912 33.7412H25.5849C25.6313 33.6846 25.6777 33.628 25.724 33.5729H25.7224ZM25.6537 33.7758C25.4874 33.9378 25.3898 34.0322 25.2811 34.1391C25.1659 34.0495 25.0508 33.9598 24.8157 33.7758H25.6537ZM23.8258 38.4216C23.8482 38.4437 23.8946 38.472 23.8898 38.4877C23.8786 38.5349 23.8482 38.5789 23.8258 38.6245C23.8035 38.6025 23.7795 38.5789 23.7523 38.5522C23.7763 38.5097 23.8003 38.4657 23.8258 38.4216ZM23.2358 38.6544C23.2629 38.6811 23.2869 38.7047 23.3093 38.7267C23.2629 38.7488 23.2198 38.7802 23.1702 38.7912C23.1526 38.7944 23.1254 38.7503 23.1014 38.7267C23.1462 38.7032 23.191 38.678 23.2341 38.6544H23.2358ZM21.1377 27.6375C21.1632 27.6815 21.1872 27.7255 21.2112 27.768C21.184 27.7947 21.16 27.8183 21.1377 27.8404C21.1153 27.7947 21.0833 27.7523 21.0737 27.7035C21.0705 27.6862 21.1153 27.6595 21.1377 27.6375ZM21.0625 30.1554C21.0625 30.1318 21.1057 30.1098 21.1297 30.0862C21.176 30.1271 21.2416 30.1601 21.2656 30.212C21.3056 30.2969 21.32 30.3945 21.3439 30.4857C21.2528 30.4652 21.1329 30.4699 21.0817 30.4149C21.0353 30.363 21.0593 30.2451 21.0625 30.1554ZM20.7587 29.9132C20.7762 29.9101 20.8034 29.9541 20.8258 29.9761C20.781 30.0013 20.7363 30.0249 20.6931 30.0485C20.6659 30.0217 20.6419 29.9981 20.6195 29.9761C20.6659 29.9541 20.7091 29.9226 20.7587 29.9132ZM20.8354 30.7782C20.6435 30.915 20.5811 31.228 20.1958 31.0078C20.3877 30.871 20.45 30.558 20.8354 30.7782ZM20.2789 27.8702C20.2069 27.7381 20.1334 27.606 20.0566 27.466C20.45 27.3544 20.41 27.5698 20.2789 27.8702ZM19.5785 37.6007C19.5305 37.6133 19.4665 37.5614 19.4106 37.5378C19.4425 37.4654 19.4729 37.3931 19.4873 37.3616C19.6456 37.4261 19.7016 37.4497 19.7592 37.4733C19.7 37.5173 19.6456 37.5834 19.5801 37.6007H19.5785ZM19.5673 29.9934C19.5433 30.017 19.5097 30.0595 19.5017 30.0563C19.4569 30.0327 19.4186 29.9981 19.377 29.9667C19.4074 29.9368 19.4378 29.9053 19.4697 29.8755C19.5017 29.9148 19.5353 29.9541 19.5673 29.9934ZM19.3146 29.7213C19.3482 29.7638 19.3578 29.8236 19.377 29.8755H19.2842C19.2522 29.8346 19.2203 29.7952 19.1883 29.7544C19.2315 29.7418 19.3034 29.7087 19.313 29.7213H19.3146ZM18.8605 38.0143C18.8828 38.0363 18.9068 38.0599 18.934 38.0867C18.91 38.1291 18.886 38.1731 18.8605 38.2172C18.8381 38.1952 18.7917 38.1669 18.7965 38.1511C18.8077 38.104 18.8381 38.0599 18.8605 38.0143ZM18.4143 19.9374C18.4879 19.9689 18.5614 19.9988 18.5934 20.0129C18.5278 20.1686 18.5038 20.2237 18.4799 20.2803C18.4351 20.2221 18.3679 20.1686 18.3503 20.1041C18.3375 20.0569 18.3903 19.994 18.4143 19.939V19.9374Z" fill="#36454F"/>
<path id="Vector_4" d="M87.9664 3.9444L85.7932 4.37847V9.007C85.7932 10.4099 84.7361 11.6586 83.3608 11.97L74.9445 14.0334C74.9637 14.0665 74.9812 14.0995 74.9892 14.1341C74.9924 14.1514 74.9477 14.1781 74.9253 14.2001C74.9029 14.1545 74.8709 14.1121 74.8613 14.0633C74.8613 14.0602 74.8629 14.0554 74.8661 14.0507L73.7627 14.3212C73.9034 14.521 73.6108 14.6311 73.5004 14.7915C73.3565 14.6735 73.259 14.5933 73.0687 14.4376C73.1054 14.4266 73.1422 14.414 73.179 14.4014V12.2295C73.179 6.45919 67.7339 2.09016 62.0249 3.3908L61.6299 3.47888C61.6347 3.48831 61.6379 3.49932 61.6427 3.50876C61.5963 3.53707 61.5515 3.56538 61.5052 3.59368C61.4828 3.57009 61.4588 3.5465 61.4364 3.52291L53.6709 5.26234C52.2444 5.57532 51.2402 6.82249 51.2402 8.22536V10.1472C51.3713 10.1582 51.5312 10.0859 51.6496 10.1315C51.6911 10.3879 51.7343 10.6458 51.7903 10.9918C51.5968 10.8785 51.4257 10.7134 51.2386 10.6033V17.8583C51.2642 17.8457 51.2897 17.8331 51.3153 17.8205C51.4241 17.9495 51.512 18.0533 51.6304 18.1933C51.4529 18.3128 51.3345 18.3914 51.237 18.4276V27.0587C51.237 30.3347 53.9859 32.5176 57.2098 31.791L65.7717 29.9761C65.7653 29.962 65.7589 29.9494 65.7557 29.9352C65.7525 29.9179 65.7973 29.8912 65.8197 29.8692C65.8357 29.8991 65.8533 29.9274 65.8693 29.9573L71.6422 28.7337V30.0705C71.6422 30.8002 71.4551 31.4891 71.1257 32.093C71.2392 32.027 71.3592 31.9593 71.5095 31.8728C71.4167 32.2409 71.4055 32.2833 71.0329 32.2534C70.7195 32.7756 70.2957 33.2238 69.7904 33.5698C69.7472 33.6437 69.7056 33.7176 69.6513 33.7255C69.2563 33.79 69.5345 34.1187 69.3762 34.3121H68.8229C68.8005 34.2272 68.7925 34.147 68.7973 34.0731C68.623 34.1344 68.4439 34.1895 68.2584 34.2288L63.7744 35.1913C63.5777 35.6285 63.5457 35.6662 63.2722 35.7087C63.4114 35.6411 63.389 35.3973 63.4641 35.2589L9.2623 46.8861C9.19354 47.1267 9.15836 47.2478 9.12317 47.3689C9.09119 47.2745 9.04801 47.1817 9.03362 47.0842C9.03042 47.0559 9.10239 47.0166 9.24951 46.8908L0.121521 48.8472V58.3764L27.0945 52.6218C27.0721 52.5667 27.0497 52.5101 27.0273 52.4551H27.2336C27.1889 52.5101 27.1425 52.5652 27.0977 52.6202L47.1399 48.344C47.2407 48.1442 47.3398 47.9429 47.439 47.7463C47.5557 47.8942 47.6325 47.9917 47.722 48.1065C47.6437 48.1615 47.5669 48.2166 47.4885 48.2701L64.2413 44.6953C69.4226 43.5519 73.1758 39.0806 73.1758 33.8293V28.3672L79.929 26.5366C80.4008 26.4296 80.8582 26.296 81.2979 26.1387C81.2755 26.1277 81.2547 26.1151 81.234 26.1041C81.2563 26.0821 81.2803 26.0585 81.3075 26.0317C81.3443 26.0522 81.3827 26.0726 81.4211 26.0931C85.395 24.6257 87.9664 21.1736 87.9664 16.8109V3.9444ZM51.3905 13.9973H51.2865V13.5899H51.3905V13.9973ZM51.7407 10.1315C51.7103 10.1016 51.6783 10.0702 51.648 10.0403C51.6879 10.0088 51.7279 9.9758 51.7679 9.94434C51.7919 9.96793 51.8367 10.001 51.8319 10.0088C51.8079 10.0529 51.7711 10.0906 51.7407 10.1315ZM51.8207 22.0292C51.8958 21.7712 51.931 21.6486 51.9662 21.5259C51.9982 21.6202 52.0413 21.713 52.0557 21.8105C52.0605 21.8404 51.9838 21.8813 51.8207 22.0292ZM52.1549 21.5259C52.1245 21.496 52.0925 21.4661 52.0621 21.4347C52.1021 21.4032 52.1421 21.3702 52.1821 21.3387C52.2061 21.3623 52.2492 21.3953 52.246 21.4032C52.222 21.4472 52.1853 21.485 52.1549 21.5259ZM53.0264 21.4929C52.9816 21.4347 52.9145 21.3812 52.8969 21.3167C52.8841 21.2711 52.9369 21.2066 52.9609 21.1516C53.0344 21.183 53.108 21.2129 53.14 21.2271C53.0744 21.3828 53.0504 21.4378 53.0264 21.4944V21.4929ZM53.6149 18.0659C53.5925 18.0439 53.5685 18.0203 53.5414 17.9935C53.5653 17.9511 53.5909 17.907 53.6149 17.863C53.6373 17.885 53.6837 17.9133 53.6805 17.9291C53.6693 17.9762 53.6389 18.0203 53.6149 18.0659ZM54.0803 18.0659H53.9763V17.6586H54.0803V18.0659ZM55.3676 12.154C55.3148 12.1666 55.2349 12.0612 55.1661 12.0093C55.2365 11.926 55.2924 11.8206 55.382 11.7687C55.4188 11.7467 55.5243 11.8395 55.689 11.9291C55.5419 12.0376 55.4635 12.1304 55.3676 12.1524V12.154ZM63.5809 6.09903C63.5984 6.09589 63.6256 6.13992 63.6496 6.16352C63.6032 6.18553 63.5601 6.21699 63.5105 6.22642C63.4929 6.22957 63.4657 6.18553 63.4417 6.16352C63.4881 6.1415 63.5313 6.11004 63.5809 6.09903ZM60.0275 5.85683C60.0515 5.90087 60.0771 5.94491 60.1011 5.98737C60.0739 6.01411 60.0499 6.0377 60.0275 6.05972C60.0051 6.01411 59.9732 5.97164 59.962 5.92289C59.9588 5.90559 60.0035 5.87885 60.0275 5.85683ZM56.6661 10.1299H56.7701V10.5373H56.6661V10.1299ZM56.786 17.8205C56.5989 17.7419 56.3559 17.7105 56.2519 17.5752C56.1624 17.4604 56.2343 17.2261 56.2343 17.0185C56.7653 17.1065 56.8884 17.3786 56.7876 17.8205H56.786ZM56.9252 24.9843C56.9028 24.9387 56.8708 24.8962 56.8612 24.8475C56.858 24.8302 56.9028 24.8034 56.9252 24.7798C56.9508 24.8239 56.9747 24.8679 56.9987 24.9104C56.9715 24.9371 56.9476 24.9607 56.9252 24.9827V24.9843ZM57.5057 22.1031C57.5057 21.8493 57.6949 21.7592 58.0734 21.8326C57.8799 21.9254 57.6944 22.0134 57.5057 22.1031ZM58.342 29.9966C58.4827 30.2655 58.5691 30.4291 58.6507 30.5848C58.4076 30.6361 58.3047 30.4401 58.342 29.9966ZM58.3084 29.3234C58.3052 29.3061 58.35 29.2794 58.3724 29.2558C58.398 29.2999 58.422 29.3439 58.446 29.3864C58.4188 29.4131 58.3948 29.4367 58.3724 29.4587C58.35 29.4131 58.318 29.3706 58.3084 29.3219V29.3234ZM58.7578 29.4304C58.7306 29.4037 58.7066 29.3801 58.6842 29.358C58.7306 29.336 58.7738 29.3046 58.8234 29.2951C58.841 29.292 58.8681 29.336 58.8921 29.358C58.8474 29.3832 58.8026 29.4068 58.7594 29.4304H58.7578ZM60.0291 22.3374C60.0067 22.3154 59.9604 22.2871 59.9636 22.2714C59.9748 22.2242 60.0051 22.1801 60.0291 22.1345C60.0515 22.1565 60.0755 22.1801 60.1027 22.2069C60.0787 22.2493 60.0531 22.2934 60.0291 22.3374ZM60.2834 30.2529C60.6203 30.2833 60.8165 30.4228 60.8719 30.6713C60.6752 30.5313 60.4801 30.3913 60.2834 30.2529ZM60.8431 22.1251C60.9822 22.3138 61.3005 22.3752 61.0766 22.7542C60.9375 22.5655 60.6192 22.5041 60.8431 22.1251ZM61.1677 28.9397C61.1262 28.9712 61.0862 29.0026 61.0446 29.0341C61.0318 28.9916 60.9966 28.9208 61.011 28.9114C61.0542 28.8784 61.115 28.8689 61.1677 28.8501V28.9413V28.9397ZM61.2605 28.8485C61.2301 28.8186 61.1981 28.7871 61.1677 28.7573C61.2077 28.7242 61.2477 28.6928 61.2877 28.6613C61.3117 28.6849 61.3548 28.7179 61.3516 28.7258C61.3276 28.7698 61.2925 28.8076 61.2605 28.8485ZM61.737 28.8485H61.6331V28.4411H61.737V28.8485ZM61.857 23.1128C61.8394 23.1159 61.8122 23.0719 61.7882 23.0499C61.8346 23.0278 61.8778 22.9964 61.9273 22.9869C61.9449 22.9838 61.9721 23.0278 61.9961 23.0499C61.9497 23.0719 61.9049 23.1033 61.857 23.1128ZM61.8618 18.4418C61.8346 18.415 61.8106 18.3914 61.7882 18.3694C61.8346 18.3474 61.8778 18.316 61.9273 18.3065C61.9449 18.3034 61.9721 18.3474 61.9961 18.3694C61.9513 18.3946 61.9065 18.4182 61.8634 18.4418H61.8618ZM62.9268 18.6745C62.9044 18.6525 62.8804 18.6289 62.8532 18.6022C62.8772 18.5597 62.9012 18.5157 62.9268 18.4717C62.9492 18.4937 62.9956 18.522 62.9908 18.5393C62.9796 18.5865 62.9492 18.6305 62.9268 18.6761V18.6745ZM64.0734 16.3595L57.9806 17.6601C57.8815 17.6806 57.7871 17.6067 57.7871 17.506L57.7935 15.2523C57.6176 15.1312 57.4305 15.0022 57.1938 14.8371H57.7951L57.8031 11.8002L61.7146 10.8927C62.9188 10.6143 64.0734 11.5124 64.0734 12.7296V16.3579V16.3595ZM65.2024 11.7561C65.1768 11.7121 65.1528 11.668 65.1288 11.6256C65.156 11.5988 65.18 11.5753 65.2024 11.5532C65.2248 11.5988 65.2568 11.6413 65.2664 11.6901C65.2696 11.7074 65.2248 11.7341 65.2024 11.7577V11.7561ZM26.0982 46.3482C26.1238 46.3922 26.1478 46.4363 26.1718 46.4787C26.1446 46.5055 26.1206 46.529 26.0982 46.5511C26.0758 46.5055 26.0439 46.463 26.0327 46.4142C26.0295 46.3969 26.0742 46.3702 26.0982 46.3482ZM17.8226 49.8066C17.845 49.8286 17.869 49.8522 17.8962 49.8789C17.8722 49.9214 17.8482 49.9655 17.8226 50.0095C17.8002 49.9875 17.7538 49.9592 17.7586 49.9434C17.7698 49.8962 17.8002 49.8522 17.8226 49.8066ZM14.306 48.1788C14.3284 48.2009 14.3524 48.2244 14.3796 48.2512C14.3556 48.2936 14.3316 48.3377 14.306 48.3817C14.2837 48.3597 14.2373 48.3314 14.2421 48.3157C14.2533 48.2685 14.2837 48.2244 14.306 48.1788ZM6.07678 49.2042C6.10397 49.404 6.12955 49.6037 6.15674 49.8035C6.09757 49.8066 6.04 49.8113 5.98083 49.8145C5.96324 49.6981 5.93286 49.5833 5.93126 49.4669C5.93126 49.3804 5.96644 49.2939 6.07838 49.2027L6.07678 49.2042ZM4.5176 51.7788C4.75215 51.5471 5.13968 51.4538 5.68019 51.4989C5.44565 51.7306 5.05812 51.8239 4.5176 51.7788ZM5.54426 50.5867C5.54106 50.5505 5.53787 50.5159 5.53627 50.4797C5.72017 50.4546 5.90567 50.431 6.08957 50.4058C6.08957 50.4656 6.09277 50.5253 6.09437 50.5851H5.54426V50.5867ZM6.25749 49.989C6.21271 49.9654 6.17433 49.9293 6.13275 49.8978C6.16314 49.8679 6.19512 49.8381 6.2255 49.8066C6.25749 49.8459 6.29107 49.8852 6.32305 49.9246C6.29906 49.9481 6.26548 49.9906 6.25749 49.9875V49.989ZM6.82199 50.3806C6.8044 50.3838 6.77721 50.3398 6.75482 50.3177C6.7996 50.2926 6.84438 50.269 6.88755 50.2454C6.91474 50.2721 6.93873 50.2957 6.96111 50.3177C6.91474 50.3398 6.87156 50.3712 6.82199 50.3806ZM6.07518 48.5107C6.32305 47.9602 6.59011 47.9052 7.01069 48.053C6.71644 48.1961 6.48617 48.3094 6.07518 48.5107ZM8.35718 53.8784H8.25323V53.471H8.35718V53.8784ZM8.05974 48.6396C8.02562 48.4981 8.19566 48.4383 8.56987 48.4604C8.28042 48.5626 8.1301 48.616 8.05974 48.6396ZM8.67381 47.7605C8.5059 47.3673 8.75377 47.3563 9.2735 47.3783C8.98405 47.5623 8.83853 47.6551 8.67381 47.7605ZM9.54695 47.1644C9.52456 47.1424 9.50058 47.1188 9.47339 47.0921C9.49738 47.0496 9.52137 47.0056 9.54695 46.9615C9.56934 46.9836 9.61572 47.0119 9.61092 47.0276C9.59972 47.0748 9.56934 47.1188 9.54695 47.1644ZM12.4734 54.053C12.4302 54.0294 12.3855 54.0042 12.3407 53.9806C12.3631 53.9586 12.3919 53.913 12.4078 53.9161C12.4558 53.9271 12.5006 53.957 12.547 53.9806C12.5246 54.0026 12.5006 54.0262 12.4734 54.053ZM12.9883 52.2097C13.2602 51.9219 13.4185 51.7552 13.612 51.5492C13.7639 51.8055 13.8711 51.9832 14.0358 52.2616C13.6648 52.2427 13.4137 52.2302 12.9883 52.2081V52.2097ZM13.8039 51.3384C13.975 51.2425 14.1477 51.1481 14.3924 51.0113C14.4372 51.6671 14.0358 51.329 13.8039 51.3384ZM14.6882 49.7689C14.6701 49.3956 14.7479 49.2305 14.9217 49.2734C14.8817 49.3584 14.8162 49.4968 14.6882 49.7689ZM16.0555 46.3309C15.9612 46.474 15.8364 46.5951 15.7213 46.7256C15.6973 46.603 15.6445 46.4771 15.6605 46.3608C15.6733 46.268 15.7709 46.1878 15.8748 46.0415C15.974 46.1972 16.0747 46.3026 16.0555 46.3309ZM16.201 54.5075C16.3498 54.1583 16.4505 53.9177 16.5417 53.7054H17.1254C16.8519 54.0042 16.8871 54.4792 16.201 54.5075ZM17.4772 54.2794C17.45 54.2952 17.3764 54.2307 17.2309 54.152C17.45 54.1206 17.5859 54.1017 17.7202 54.0828C17.6403 54.1505 17.5667 54.2291 17.4772 54.2794ZM17.813 54.0828C17.7826 54.053 17.7506 54.0215 17.7202 53.9916C17.7602 53.9602 17.8002 53.9271 17.8402 53.8957C17.8642 53.9193 17.9073 53.9523 17.9041 53.9602C17.8802 54.0042 17.8434 54.0419 17.813 54.0828ZM21.3487 52.8545C21.3199 52.853 21.296 52.7712 21.2704 52.7271C21.3599 52.7036 21.4495 52.6705 21.5422 52.6642C21.5662 52.6627 21.5966 52.7444 21.6446 52.8199C21.5326 52.8357 21.4399 52.8593 21.3487 52.8545ZM22.8935 51.4375V51.5287C22.8519 51.5602 22.812 51.5916 22.7704 51.6231C22.7576 51.5806 22.724 51.5099 22.7368 51.5004C22.78 51.4674 22.8407 51.458 22.8935 51.4391C22.9735 51.3715 23.047 51.2928 23.1366 51.2425C23.1638 51.2268 23.2373 51.2913 23.3829 51.3699C23.1638 51.4013 23.0278 51.4202 22.8935 51.4391V51.4375ZM24.8589 48.9951C24.8365 48.9731 24.7901 48.9448 24.7933 48.9274C24.8045 48.8803 24.8349 48.8362 24.8589 48.7906C24.8813 48.8126 24.9053 48.8362 24.9324 48.863C24.9085 48.9054 24.8829 48.9495 24.8589 48.9935V48.9951ZM25.9607 48.5893V49.1791C25.7608 49.0863 25.5961 49.0108 25.361 48.9007C25.5897 48.7812 25.7896 48.6774 25.9607 48.5877V48.5893ZM25.4794 50.9295C25.6904 50.8336 25.8328 50.7675 25.9703 50.7062C26.0598 51.0349 25.9143 51.0884 25.4794 50.9295ZM26.0311 47.9964C26.2294 48.0892 26.3957 48.1647 26.6307 48.2748C26.4021 48.3943 26.2022 48.4981 26.0311 48.5877V47.998V47.9964ZM26.7395 52.4472C26.7107 52.4519 26.6691 52.3749 26.5284 52.2192C26.7795 52.2899 26.9058 52.3245 27.0289 52.3591C26.933 52.3906 26.8386 52.4331 26.7395 52.4472ZM27.328 52.4535C27.2976 52.4236 27.2656 52.3922 27.2352 52.3623C27.2752 52.3308 27.3152 52.2978 27.3552 52.2663C27.3792 52.2899 27.4223 52.323 27.4191 52.3308C27.3951 52.3749 27.3584 52.4126 27.3264 52.4535H27.328ZM27.3999 48.5799C27.3248 48.5327 27.24 48.5028 27.2416 48.4792C27.248 48.3896 27.2816 48.3015 27.3056 48.2134C27.3504 48.2386 27.4335 48.2622 27.4351 48.2905C27.4399 48.3801 27.4159 48.4698 27.3999 48.5799ZM28.3658 51.2928C28.2651 51.1356 28.1867 51.0097 28.0908 50.8588C28.3546 50.8131 28.6009 50.7502 28.3658 51.2928ZM30.6558 45.7301C30.5407 45.6405 30.4255 45.5508 30.1905 45.3668H31.0284C30.8621 45.5288 30.7646 45.6232 30.6558 45.7301ZM31.0508 45.3322C31.0204 45.3023 30.99 45.2724 30.9581 45.241C30.998 45.2095 31.038 45.1765 31.078 45.145C31.102 45.1686 31.1452 45.2017 31.142 45.2095C31.118 45.2536 31.0828 45.2913 31.0508 45.3322ZM30.8285 44.4216C30.9149 44.4609 31.0572 44.5254 31.3323 44.6512C30.9527 44.669 30.7848 44.5925 30.8285 44.4216ZM34.1964 46.3214C34.1532 46.2979 34.1084 46.2727 34.0636 46.2491C34.086 46.2271 34.1148 46.1815 34.1308 46.1846C34.1788 46.1956 34.2235 46.2255 34.2699 46.2491C34.2475 46.2711 34.2235 46.2947 34.1964 46.3214ZM34.3499 45.7458C34.134 45.3385 34.3195 45.0821 34.5993 44.9485C34.7065 44.8966 34.9352 45.0916 35.1814 45.208C34.8696 45.4108 34.6297 45.565 34.3499 45.7458ZM36.7006 43.7044H36.5967V43.2971H36.7006V43.7044ZM37.5738 43.6981C37.5274 43.7107 37.4618 43.6588 37.4059 43.6352C37.4378 43.5629 37.4682 43.4905 37.4826 43.4591C37.6409 43.5236 37.6969 43.5472 37.7545 43.5708C37.6953 43.6148 37.6409 43.6808 37.5754 43.6981H37.5738ZM38.9171 41.2557C38.8259 41.2494 38.7364 41.2164 38.6452 41.1928C38.6708 41.1488 38.6948 41.067 38.7236 41.0654C38.8147 41.0607 38.9059 41.0843 39.0178 41.1C38.9698 41.1739 38.9411 41.2573 38.9155 41.2557H38.9171ZM40.8632 48.7592C40.7897 48.7356 40.7241 48.7356 40.7033 48.7041C40.6202 48.5799 40.5498 48.4462 40.4746 48.3157C40.6074 48.259 40.7401 48.2009 40.8632 48.1474V48.7592ZM40.9816 48.1804C40.9512 48.1505 40.9192 48.1191 40.8888 48.0892C40.9288 48.0577 40.9688 48.0247 41.0088 47.9933C41.0328 48.0168 41.0775 48.0499 41.0727 48.0577C41.0487 48.1018 41.0136 48.1395 40.9816 48.1804ZM41.674 48.1725C41.5989 48.1254 41.5141 48.0955 41.5157 48.0719C41.5221 47.9822 41.5557 47.8942 41.5797 47.8061C41.6244 47.8313 41.7076 47.8549 41.7092 47.8832C41.714 47.9712 41.69 48.0625 41.674 48.1725ZM41.7156 45.4329C41.738 45.4108 41.7668 45.3652 41.7844 45.3684C41.8323 45.3794 41.8771 45.4093 41.9235 45.4329C41.9011 45.4549 41.8771 45.4785 41.8499 45.5052C41.8067 45.4816 41.762 45.4564 41.7172 45.4329H41.7156ZM41.9906 46.3104C41.9731 46.3136 41.9459 46.2695 41.9235 46.2475C41.9699 46.2255 42.013 46.1941 42.0626 46.183C42.0802 46.1799 42.1074 46.2239 42.1298 46.2475C42.0834 46.2695 42.0402 46.301 41.9906 46.3104ZM41.3286 40.4143C41.4549 40.0494 41.722 39.9865 42.0226 40.0541C42.085 40.0683 42.109 40.2539 42.1713 40.4143H41.3286ZM42.5967 44.7125C42.52 44.7267 42.4256 44.6544 42.3393 44.6213C42.4064 44.4845 42.4688 44.3461 42.5456 44.2156C42.5679 44.1778 42.6335 44.1652 42.6815 44.1401C42.7055 44.203 42.7518 44.2627 42.7454 44.3162C42.7311 44.4609 42.8414 44.6669 42.5967 44.7125ZM43.2908 44.6811C43.2604 44.7236 43.1133 44.7047 43.0301 44.6811C42.9933 44.6701 42.9453 44.56 42.9629 44.5238C43.0877 44.2753 43.2028 43.9875 43.5626 44.1684C43.4651 44.3618 43.3979 44.5348 43.2908 44.6827V44.6811ZM44.004 45.2032C44.0504 45.0334 44.0488 44.9658 44.0791 44.9453C44.3158 44.7833 43.9768 44.7078 44.0312 44.5899C44.0504 44.549 44.1895 44.5144 44.1927 44.5222C44.383 44.8635 44.9155 44.2832 44.9875 44.884C44.7204 44.9705 44.4022 45.0758 44.004 45.2048V45.2032ZM45.3665 43.2672C45.3233 43.2436 45.2785 43.22 45.2337 43.1949C45.2561 43.1729 45.2849 43.1272 45.3025 43.132C45.3505 43.143 45.3952 43.1729 45.4416 43.1949C45.4192 43.2169 45.3953 43.2405 45.3681 43.2672H45.3665ZM45.7583 46.8625C45.9582 46.7571 46.0925 46.6863 46.2364 46.6093C46.3324 46.9773 46.174 47.0134 45.7583 46.8625ZM46.577 42.8898C46.5546 42.8442 46.5227 42.8017 46.5115 42.7529C46.5083 42.7356 46.553 42.7089 46.577 42.6853C46.5994 42.7309 46.6314 42.775 46.641 42.8221C46.6442 42.8394 46.5994 42.8662 46.577 42.8882V42.8898ZM60.8527 37.3962C60.8751 37.4418 60.9071 37.4843 60.9167 37.5331C60.9199 37.5504 60.8751 37.5771 60.8527 37.5991C60.8303 37.5535 60.7983 37.511 60.7887 37.4623C60.7855 37.445 60.8303 37.4183 60.8527 37.3962ZM51.5424 38.6167C51.5648 38.6623 51.5968 38.7047 51.6064 38.7535C51.6096 38.7708 51.5648 38.7975 51.5424 38.8211C51.52 38.7755 51.488 38.7331 51.4784 38.6843C51.4752 38.667 51.52 38.6403 51.5424 38.6167ZM50.3734 38.8777C50.4694 39.2458 50.3111 39.2819 49.8953 39.131C50.0952 39.0256 50.2295 38.9532 50.3734 38.8777ZM48.0546 41.6992C48.0818 41.7259 48.1058 41.7495 48.1282 41.7716C48.0818 41.7936 48.0387 41.825 47.9891 41.8345C47.9715 41.8376 47.9443 41.7936 47.9203 41.7716C47.9651 41.7464 48.0099 41.7228 48.053 41.6992H48.0546ZM48.0978 42.149C48.0738 42.1915 48.0499 42.2355 48.0243 42.2795C48.0019 42.2575 47.9555 42.2292 47.9603 42.2119C47.9715 42.1647 48.0019 42.1207 48.0243 42.0751C48.0466 42.0971 48.0706 42.1207 48.0978 42.1474V42.149ZM47.5077 47.7746C47.5077 47.5251 47.6458 47.2535 47.9219 46.96H47.8292C47.7972 46.9191 47.7652 46.8798 47.7332 46.8389C47.7764 46.8263 47.8484 46.7933 47.8579 46.8058C47.8915 46.8483 47.9011 46.9081 47.9203 46.96C48.0291 46.8986 48.1362 46.8373 48.3009 46.7429C48.3137 46.938 48.3265 47.1172 48.3393 47.2934C47.8787 47.3815 47.8276 47.4129 47.5061 47.7731L47.5077 47.7746ZM49.2828 42.2638C49.222 42.1254 48.8622 42.1569 49.0573 41.8769C49.2956 41.5341 49.0829 40.8798 49.7226 40.8499C49.8089 41.1409 49.8889 41.4083 49.996 41.7668C49.9001 41.8046 49.7577 41.836 49.649 41.9131C49.5131 42.009 49.4059 42.1427 49.2828 42.2638ZM50.0872 42.2733C49.996 42.267 49.9065 42.2339 49.8169 42.2103C49.8425 42.1663 49.8665 42.0845 49.8953 42.083C49.9864 42.0782 50.0776 42.1018 50.1895 42.1176C50.1415 42.193 50.1112 42.2748 50.0872 42.2733ZM49.7577 40.8374C49.8137 40.7634 49.8553 40.6659 49.9305 40.6172C50.1304 40.4866 50.343 40.3781 50.6661 40.1941C50.503 40.7587 50.1128 40.765 49.7577 40.8374ZM51.1618 38.5852C51.0243 38.7047 50.9235 38.9123 50.6821 38.7881C50.6549 38.7739 50.6341 38.7441 50.6117 38.7205C50.7668 38.6182 50.9203 38.516 51.0787 38.4185C51.0946 38.4091 51.133 38.4374 51.2626 38.4877C51.2082 38.5412 51.1858 38.5648 51.1618 38.5868V38.5852ZM51.4305 46.2491C51.624 46.1563 51.8079 46.0667 51.9934 45.9786C51.9998 46.2281 51.8121 46.3183 51.4305 46.2491ZM52.0525 43.2892C51.9854 43.371 51.9006 43.4559 51.8047 43.4937C51.7215 43.5251 51.6144 43.4921 51.3009 43.4764C51.5168 43.2955 51.6064 43.1933 51.7199 43.1351C51.7919 43.0989 51.9038 43.1099 51.987 43.1351C52.0238 43.1461 52.0717 43.2688 52.0541 43.2908L52.0525 43.2892ZM51.8862 39.4471V38.4736C52.0781 38.8573 52.1917 39.0838 52.3324 39.3637C52.1597 39.3952 52.0445 39.4172 51.8862 39.4455V39.4471ZM52.7834 40.246C52.761 40.2004 52.729 40.1579 52.7194 40.1092C52.7162 40.0919 52.761 40.0652 52.7834 40.0431C52.8089 40.0872 52.8329 40.1312 52.8569 40.1737C52.8297 40.2004 52.8057 40.224 52.7834 40.246ZM54.5616 42.7702C54.6048 42.7577 54.6768 42.7246 54.6864 42.7372C54.7199 42.7797 54.7295 42.8394 54.7487 42.8913H54.656C54.624 42.8504 54.592 42.8111 54.56 42.7702H54.5616ZM54.8735 43.0722C54.8287 43.0486 54.7903 43.014 54.7487 42.981C54.7791 42.9511 54.8111 42.9212 54.8415 42.8898C54.8735 42.9291 54.907 42.9684 54.939 43.0077C54.915 43.0313 54.8815 43.0738 54.8735 43.0706V43.0722ZM55.5035 44.6937C55.4603 44.6701 55.4156 44.6465 55.3708 44.6213C55.3932 44.5993 55.422 44.5537 55.4396 44.5569C55.4875 44.5679 55.5323 44.5977 55.5787 44.6198C55.5563 44.6418 55.5323 44.6654 55.5051 44.6921L55.5035 44.6937ZM55.0957 43.3773C55.5739 43.2075 55.6634 43.4795 55.7338 43.7846C55.5451 43.6635 55.3564 43.544 55.0957 43.3773ZM56.3287 43.8633C56.1576 43.9608 55.8921 44.0033 55.7882 43.8035C56.0584 43.5377 56.2839 43.3175 56.5174 43.0895C56.7349 43.4402 56.6069 43.706 56.3287 43.8649V43.8633ZM57.3362 45.1309C57.3138 45.0853 57.2818 45.0428 57.2722 44.9941C57.269 44.9768 57.3138 44.95 57.3362 44.9264C57.3617 44.9705 57.3857 45.0145 57.4097 45.057C57.3825 45.0837 57.3585 45.1073 57.3362 45.1293V45.1309ZM56.9843 43.1524C57.1794 42.8253 57.269 42.5532 57.4577 42.3912C57.6512 42.2245 57.9406 42.1632 58.2301 42.1238C57.7535 42.3377 57.6784 42.9857 56.9843 43.1524ZM57.9007 44.7346C57.8975 44.6732 57.8927 44.6135 57.8895 44.5521H58.4396C58.4428 44.5883 58.446 44.6229 58.4492 44.6591C58.2669 44.6842 58.083 44.7094 57.9007 44.7346ZM58.793 44.9201C58.7642 44.9186 58.7402 44.8368 58.7146 44.7928C58.8042 44.7692 58.8937 44.7361 58.9849 44.7299C59.0089 44.7283 59.0393 44.8101 59.0872 44.8855C58.9753 44.9013 58.8825 44.9264 58.793 44.9201ZM59.4055 39.6358C59.3831 39.5902 59.3511 39.5477 59.3415 39.499C59.3383 39.4817 59.3831 39.4549 59.4055 39.4313C59.4279 39.477 59.4598 39.5194 59.4694 39.5682C59.4726 39.5855 59.4279 39.6122 59.4055 39.6358ZM59.6118 44.1118C59.5894 44.0662 59.5574 44.0237 59.5462 43.9749C59.543 43.9576 59.5878 43.9309 59.6118 43.9089C59.6357 43.9529 59.6613 43.997 59.6853 44.0394C59.6581 44.0662 59.6341 44.0898 59.6118 44.1118ZM60.0755 38.3713C60.1491 38.0521 60.1475 37.9262 60.2066 37.8445C60.2418 37.7973 60.3762 37.8193 60.6448 37.7926C60.4401 37.9986 60.3394 38.1024 60.0739 38.3698L60.0755 38.3713ZM60.8607 44.7141C60.8319 44.7125 60.8079 44.6308 60.7823 44.5867C60.8719 44.5631 60.9614 44.5301 61.0526 44.5238C61.0766 44.5223 61.107 44.604 61.1549 44.6795C61.043 44.6952 60.9502 44.7204 60.8607 44.7141ZM61.1629 41.77C61.2093 41.748 61.2525 41.7165 61.3021 41.7071C61.3197 41.7039 61.3468 41.748 61.3692 41.77C61.3245 41.7951 61.2797 41.8187 61.2365 41.8423C61.2093 41.8156 61.1853 41.792 61.1629 41.77ZM61.438 43.2578C61.4204 43.2609 61.3932 43.2169 61.3708 43.1949C61.4156 43.1697 61.4604 43.1461 61.5036 43.1225C61.5307 43.1493 61.5547 43.1729 61.5771 43.1949C61.5307 43.2169 61.4876 43.2483 61.438 43.2578ZM63.1635 37.154C63.1155 37.143 63.0707 37.1131 63.0244 37.0911C63.0467 37.0691 63.0707 37.0455 63.0979 37.0188C63.1411 37.0424 63.1859 37.066 63.2306 37.0911C63.2083 37.1131 63.1795 37.1588 63.1619 37.154H63.1635ZM62.8452 36.5061C63.0148 36.3897 63.1811 36.2639 63.3586 36.1585C63.4417 36.1097 63.5793 36.05 63.6384 36.0846C63.76 36.1554 63.9423 36.267 63.7056 36.44C63.6864 36.4542 63.7808 36.6193 63.8335 36.7388C63.4625 36.8033 63.1011 36.8977 62.8452 36.5061ZM66.2483 42.2968C66.2722 42.3204 66.3154 42.3535 66.3122 42.3613C66.2882 42.4054 66.2514 42.4431 66.2195 42.484C66.1891 42.4541 66.1587 42.4227 66.1267 42.3928C66.1667 42.3613 66.2067 42.3283 66.2467 42.2968H66.2483ZM65.8661 43.4984C65.6566 43.3773 65.4759 43.2735 65.2632 43.1508C65.3927 42.8284 65.6102 42.5941 65.9316 42.4982C66.0228 42.4714 66.1699 42.6193 66.3586 42.7246C66.1683 43.025 66.0148 43.2641 65.8677 43.4968L65.8661 43.4984ZM66.6976 37.6007H66.5937V37.1934H66.6976V37.6007ZM67.6731 36.9842C67.5819 36.9779 67.4924 36.9449 67.4028 36.9213C67.4284 36.8772 67.4524 36.7955 67.4812 36.7939C67.5724 36.7892 67.6635 36.8128 67.7755 36.8285C67.7275 36.904 67.6987 36.9858 67.6731 36.9842ZM68.332 42.0311C68.2792 42.0767 68.1592 42.0546 68.0681 42.0499C68.0441 42.0499 68.0217 42.0075 67.9977 41.9839C68.0393 41.9383 68.0729 41.8738 68.1257 41.8502C68.212 41.8109 68.3112 41.7967 68.4055 41.7731C68.3831 41.8628 68.3895 41.9823 68.3336 42.0311H68.332ZM68.236 34.7493C68.1273 34.8783 67.9881 34.9821 67.8362 35.1205C67.7291 34.9915 67.5804 34.8123 67.4204 34.6204C67.6027 34.2649 67.9658 34.32 68.4359 34.3876C68.3591 34.5307 68.316 34.6566 68.2344 34.7509L68.236 34.7493ZM68.8181 34.4364C68.7765 34.4678 68.7365 34.4993 68.695 34.5307C68.6822 34.4883 68.6486 34.4175 68.6614 34.4081C68.7046 34.375 68.7653 34.3656 68.8181 34.3467V34.4379V34.4364ZM71.8181 9.3184C71.8405 9.36401 71.8725 9.40647 71.8821 9.45523C71.8853 9.47253 71.8405 9.49926 71.8165 9.52128C71.7941 9.47567 71.7621 9.43321 71.7526 9.38445C71.7494 9.36715 71.7941 9.34042 71.8181 9.3184ZM71.2248 7.14804C70.9082 7.33205 70.7131 7.44529 70.4844 7.57897C70.4061 6.9137 70.7659 7.08513 71.2248 7.14804ZM66.5425 27.1122C66.5009 27.1437 66.4609 27.1751 66.4194 27.2066C66.4066 27.1641 66.373 27.0933 66.3858 27.0839C66.429 27.0509 66.4897 27.0414 66.5425 27.0226V27.1138V27.1122ZM66.6353 27.021C66.6049 26.9911 66.5729 26.9612 66.5425 26.9298C66.5825 26.8983 66.6225 26.8653 66.6624 26.8338C66.6864 26.8574 66.7296 26.8904 66.7264 26.8983C66.7024 26.9423 66.6672 26.9801 66.6353 27.021ZM67.0286 17.2135C67.0105 16.8402 67.0883 16.6751 67.2621 16.7181C67.2221 16.803 67.1566 16.943 67.0286 17.2135ZM67.7834 26.9077C67.7435 26.9392 67.7019 26.9707 67.6603 27.0021C67.6475 26.9596 67.6139 26.8889 67.6267 26.8794C67.6699 26.8464 67.7307 26.837 67.7834 26.8181V26.9093V26.9077ZM67.8762 26.8165C67.8458 26.7866 67.8138 26.7552 67.7834 26.7253C67.8234 26.6939 67.8634 26.6608 67.9034 26.6294C67.9274 26.653 67.9721 26.686 67.9673 26.6939C67.9434 26.7379 67.9082 26.7756 67.8762 26.8165ZM68.1976 11.3016H67.7834V11.1994H68.1976V11.3016ZM68.1305 10.2966C68.0825 10.2856 68.0377 10.2557 67.9913 10.2337C68.0137 10.2117 68.0377 10.1881 68.0649 10.1614C68.1081 10.185 68.1528 10.2086 68.1976 10.2337C68.1752 10.2557 68.1465 10.3014 68.1305 10.2966ZM68.3016 8.50373C68.2792 8.45812 68.2472 8.41408 68.236 8.3669C68.2328 8.3496 68.2776 8.32287 68.3016 8.29927C68.3256 8.34331 68.3512 8.38735 68.3751 8.42981C68.3479 8.45655 68.324 8.48014 68.3016 8.50216V8.50373ZM68.6854 19.6653C68.6582 19.6386 68.6342 19.615 68.6118 19.593C68.6582 19.571 68.7014 19.5395 68.7509 19.5301C68.7685 19.5269 68.7957 19.571 68.8197 19.593C68.7749 19.6182 68.7301 19.6418 68.687 19.6653H68.6854ZM68.7509 8.05865C68.703 8.04764 68.6582 8.01776 68.6118 7.99417C68.6342 7.97215 68.6582 7.94856 68.6854 7.92182C68.7285 7.94541 68.7733 7.97058 68.8181 7.99417C68.7957 8.01618 68.7669 8.06179 68.7493 8.05865H68.7509ZM69.7504 14.4046C69.728 14.359 69.696 14.3149 69.6864 14.2678C69.6832 14.2505 69.728 14.2237 69.7504 14.2001C69.776 14.2442 69.8 14.2882 69.824 14.3307C69.7968 14.3574 69.7728 14.381 69.7504 14.403V14.4046ZM69.8559 7.48618H70.4748V7.89351C70.187 7.93283 69.9951 7.81488 69.8559 7.48618ZM70.3357 20.2677C70.3181 20.2708 70.2909 20.2268 70.2685 20.2048C70.3149 20.1828 70.3581 20.1513 70.4077 20.1403C70.4253 20.1372 70.4524 20.1812 70.4748 20.2048C70.4285 20.2268 70.3853 20.2583 70.3357 20.2677ZM70.4061 8.66886C70.3581 8.65786 70.3133 8.62797 70.2669 8.60596C70.2893 8.58394 70.3133 8.56035 70.3405 8.53361C70.3837 8.5572 70.4285 8.58079 70.4732 8.60596C70.4508 8.62797 70.4221 8.67358 70.4061 8.66886ZM70.598 8.07438C70.5532 8.05078 70.5148 8.01618 70.4732 7.98316C70.5036 7.95328 70.5356 7.92339 70.566 7.89194C70.5996 7.93126 70.6315 7.97058 70.6635 8.00989C70.6395 8.03348 70.606 8.07595 70.598 8.0728V8.07438ZM70.7835 18.4748C70.7611 18.4528 70.7371 18.4292 70.7099 18.4025C70.7339 18.36 70.7579 18.316 70.7835 18.2719C70.8059 18.2939 70.8522 18.3222 70.8474 18.338C70.8362 18.3852 70.8059 18.4292 70.7835 18.4748ZM70.7835 8.50373C70.7611 8.48171 70.7371 8.45812 70.7099 8.43138C70.7339 8.38892 70.7579 8.34488 70.7835 8.30085C70.8059 8.32287 70.8522 8.35117 70.8474 8.36847C70.8362 8.41566 70.8059 8.45969 70.7835 8.5053V8.50373ZM71.1625 26.9817C71.1449 26.9848 71.1177 26.9408 71.0953 26.9188C71.1417 26.8967 71.1849 26.8653 71.2344 26.8558C71.252 26.8527 71.2792 26.8967 71.3016 26.9188C71.2552 26.9408 71.212 26.9722 71.1625 26.9817ZM71.3752 16.2164C71.0681 15.5967 71.6582 15.2759 71.8229 14.8229C71.8309 14.8025 71.9988 14.8371 72.1843 14.856C72.0868 15.0368 72.0228 15.1658 71.9508 15.2916C71.8581 15.4552 71.7925 15.6533 71.655 15.7713C71.4359 15.9584 71.6086 16.0292 71.8021 16.2179H71.3736L71.3752 16.2164ZM72.0564 26.3809C72.0132 26.3573 71.9684 26.3337 71.9237 26.3085C71.9461 26.2865 71.9748 26.2409 71.9908 26.2456C72.0388 26.2566 72.0836 26.2865 72.13 26.3085C72.1076 26.3306 72.0836 26.3541 72.0564 26.3809ZM72.0996 34.4773C72.0724 34.504 72.0484 34.5276 72.026 34.5496C72.0036 34.504 71.9716 34.4615 71.962 34.4128C71.9588 34.3955 72.0036 34.3687 72.026 34.3452C72.0516 34.3892 72.0756 34.4332 72.0996 34.4757V34.4773ZM70.2222 36.7546C69.6353 36.2104 69.6976 35.8424 70.51 35.5562C70.4061 35.9918 70.3149 36.3661 70.2222 36.7546ZM70.5772 34.3452C70.5548 34.2995 70.5228 34.2571 70.5132 34.2083C70.51 34.191 70.5548 34.1643 70.5772 34.1423C70.6028 34.1863 70.6267 34.2303 70.6507 34.2728C70.6235 34.2995 70.5996 34.3231 70.5772 34.3452ZM70.6875 33.8435C70.7291 33.7978 70.7627 33.7334 70.8154 33.7098C70.9018 33.6705 71.0009 33.6563 71.0953 33.6327C71.0729 33.7224 71.0793 33.8419 71.0233 33.8906C70.9706 33.9362 70.8506 33.9127 70.7595 33.9095C70.7355 33.9095 70.7131 33.867 70.6891 33.8435H70.6875ZM70.8874 35.4524C70.8474 35.4838 70.8059 35.5153 70.7643 35.5467C70.7515 35.5043 70.7179 35.4335 70.7307 35.424C70.7739 35.391 70.8346 35.3816 70.8874 35.3627V35.4539V35.4524ZM71.0937 35.1583C71.1801 35.0293 71.268 34.9003 71.3304 34.806C71.6102 34.6518 71.38 35.4492 71.7861 34.9853C72.0516 35.0922 72.1683 35.2841 72.1284 35.564C72.0212 35.6254 71.9125 35.6851 71.8117 35.7433C71.7366 35.3784 71.3767 35.3124 71.0953 35.1567L71.0937 35.1583ZM72.0596 36.0122C72.2019 35.6521 72.3027 35.402 72.4258 35.0906C72.6513 35.5153 72.5585 35.77 72.0596 36.0122ZM72.6737 34.5182C72.6305 34.4946 72.5857 34.471 72.5409 34.4458C72.5633 34.4238 72.5921 34.3782 72.6097 34.3829C72.6577 34.3939 72.7025 34.4238 72.7488 34.4458C72.7264 34.4678 72.7025 34.4914 72.6753 34.5182H72.6737ZM72.8512 25.7974C72.8288 25.7518 72.7968 25.7093 72.7872 25.6606C72.784 25.6433 72.8288 25.6165 72.8512 25.5945C72.8768 25.6386 72.9007 25.6826 72.9247 25.7251C72.8975 25.7518 72.8736 25.7754 72.8512 25.7974ZM73.0287 15.9946C72.9839 15.8955 72.9215 15.7603 72.8576 15.6234C72.7744 15.6958 72.704 15.7571 72.6321 15.8216C72.4034 15.4976 72.5617 15.2696 72.8752 14.9975C72.9743 15.1784 73.0415 15.3718 73.1694 15.5102C73.2797 15.6282 73.4604 15.6816 73.6172 15.7681C73.3869 15.8562 73.2142 15.9238 73.0287 15.9946ZM73.6779 25.5945C73.6555 25.5489 73.6236 25.5064 73.614 25.4577C73.6108 25.4404 73.6555 25.4137 73.6779 25.3901C73.7035 25.4341 73.7275 25.4781 73.7515 25.5206C73.7243 25.5473 73.7003 25.5709 73.6779 25.5929V25.5945ZM73.6987 16.0088C73.6539 15.9852 73.6156 15.9506 73.574 15.9191C73.6044 15.8892 73.6364 15.8578 73.6667 15.8279C73.6987 15.8672 73.7323 15.9065 73.7643 15.9459C73.7403 15.9694 73.7067 16.0135 73.6987 16.0088ZM74.0905 16.2352C74.0649 16.1912 74.0409 16.1472 74.017 16.1047C74.0441 16.078 74.0681 16.0544 74.0905 16.0324C74.1129 16.078 74.1449 16.1204 74.1545 16.1692C74.1577 16.1865 74.1129 16.2132 74.0905 16.2352ZM75.3315 16.4381C75.3539 16.4601 75.3778 16.4837 75.405 16.5105C75.381 16.5529 75.3571 16.597 75.3315 16.641C75.3091 16.619 75.2627 16.5907 75.2675 16.5734C75.2787 16.5262 75.3091 16.4822 75.3315 16.4365V16.4381ZM75.3395 20.2976C75.3107 20.296 75.2867 20.2158 75.2611 20.1702C75.3507 20.1466 75.4402 20.1136 75.5314 20.1073C75.5554 20.1057 75.5857 20.1875 75.6337 20.263C75.5218 20.2787 75.429 20.3039 75.3395 20.2976ZM75.7808 16.4004C75.7329 16.3894 75.6881 16.3595 75.6417 16.3375C75.6641 16.3154 75.6881 16.2919 75.7153 16.2651C75.7584 16.2887 75.8032 16.3123 75.848 16.3375C75.8256 16.3595 75.7968 16.4051 75.7792 16.4004H75.7808ZM76.195 25.1494C76.147 25.1384 76.1023 25.1085 76.0559 25.085C76.0783 25.0629 76.1023 25.0393 76.1294 25.0126C76.1726 25.0362 76.2174 25.0598 76.2622 25.085C76.2398 25.107 76.211 25.1526 76.1934 25.1494H76.195ZM76.574 25.1872C76.5516 25.1416 76.5196 25.0991 76.5084 25.0504C76.5052 25.0331 76.55 25.0063 76.574 24.9827C76.5964 25.0283 76.6284 25.0708 76.638 25.1196C76.6412 25.1369 76.5964 25.1636 76.574 25.1872ZM76.1566 16.4303C76.1039 16.3988 76.0511 16.3658 75.9983 16.3343C76.0943 16.089 76.1918 15.8436 76.2718 15.6407C76.4557 15.7587 76.5916 15.8468 76.8123 15.9899C76.534 16.177 76.3453 16.3044 76.1566 16.4318V16.4303ZM77.7798 19.2486C77.7622 19.2517 77.735 19.2077 77.711 19.1857C77.7574 19.1637 77.8006 19.1322 77.8501 19.1228C77.8677 19.1196 77.8949 19.1637 77.9189 19.1857C77.8725 19.2077 77.8293 19.2391 77.7798 19.2486ZM78.2611 24.2451C78.2052 24.1901 78.0996 24.0863 78.0372 24.0249C78.2259 24.0155 78.3006 24.0889 78.2611 24.2451ZM80.2681 26.1764C80.2409 26.1497 80.2169 26.1261 80.1945 26.1041C80.2409 26.0821 80.2841 26.0506 80.3336 26.0412C80.3512 26.038 80.3784 26.0821 80.4008 26.1041C80.356 26.1292 80.3112 26.1528 80.2681 26.1764ZM82.1599 22.339C82.1375 22.317 82.0911 22.2887 82.0943 22.2729C82.1055 22.2257 82.1359 22.1817 82.1599 22.1361C82.1823 22.1581 82.2062 22.1817 82.2334 22.2084C82.2094 22.2509 82.1839 22.2949 82.1599 22.339ZM82.3965 21.9033C82.3534 21.8797 82.3086 21.8562 82.2638 21.831C82.2862 21.809 82.315 21.7634 82.331 21.7681C82.379 21.7791 82.4237 21.809 82.4701 21.831C82.4477 21.853 82.4237 21.8766 82.3965 21.9033ZM82.7452 24.1335C82.7276 24.1366 82.7004 24.0926 82.678 24.0705C82.7244 24.0485 82.7675 24.0171 82.8171 24.0061C82.8347 24.0029 82.8619 24.047 82.8859 24.0705C82.8395 24.0926 82.7963 24.124 82.7468 24.1335H82.7452ZM84.2803 22.3406H84.1764V21.9332H84.2803V22.3406ZM84.4179 12.0219C84.533 11.7388 84.8038 11.6062 85.2302 11.624C84.9184 11.7766 84.6897 11.8882 84.4179 12.0219ZM85.4333 11.5171C85.4157 11.5202 85.3886 11.4762 85.3662 11.4542C85.4126 11.4321 85.4557 11.4007 85.5053 11.3912C85.5229 11.3881 85.5501 11.4321 85.5725 11.4542C85.5261 11.4762 85.4829 11.5076 85.4333 11.5171ZM86.2969 14.6075C86.2745 14.5619 86.2425 14.5194 86.2329 14.4706C86.2297 14.4533 86.2745 14.4266 86.2969 14.4046C86.3225 14.4486 86.3465 14.4927 86.3704 14.5351C86.3433 14.5619 86.3193 14.5855 86.2969 14.6075ZM86.6759 14.7726C86.6583 14.7758 86.6311 14.7317 86.6087 14.7097C86.6551 14.6877 86.6983 14.6562 86.7478 14.6452C86.7654 14.6421 86.7926 14.6861 86.8166 14.7097C86.7702 14.7317 86.7271 14.7632 86.6775 14.7726H86.6759ZM86.8214 11.3566C86.839 11.2906 86.9046 11.2387 86.9509 11.1805C86.9749 11.2371 86.9989 11.2922 87.0645 11.4479C87.0325 11.462 86.9589 11.4919 86.8854 11.5234C86.8614 11.4667 86.8086 11.4038 86.8214 11.3566ZM87.0885 19.6559C87.0709 19.6591 87.0437 19.615 87.0213 19.593C87.0661 19.5678 87.1109 19.5443 87.154 19.5207C87.1812 19.5474 87.2052 19.571 87.2276 19.593C87.1812 19.615 87.138 19.6465 87.0885 19.6559ZM87.5026 4.80154C87.4851 4.80468 87.4579 4.76065 87.4339 4.73863C87.4787 4.71346 87.5234 4.68987 87.5666 4.66628C87.5938 4.69302 87.6178 4.71661 87.6402 4.73863C87.5938 4.76065 87.5506 4.7921 87.501 4.80154H87.5026Z" fill="#36454F"/>
<path id="Vector_5" d="M77.1306 74.3615C77.1625 74.2892 77.1929 74.2169 77.2073 74.1854C77.2713 74.2121 77.3193 74.231 77.356 74.2467L78.3859 71.1736L80.161 65.8767L80.4392 65.8185C80.4184 65.8169 80.3992 65.8154 80.3784 65.8138C80.5959 65.6927 80.767 65.5952 80.9318 65.5024C80.9493 65.5905 80.9621 65.6581 80.9621 65.7084L81.637 65.5653C85.3902 64.7852 87.8225 61.7703 87.8225 58.0257V51.977C87.7585 52.0414 87.6866 52.1154 87.5938 52.2082C87.6674 51.8889 87.6658 51.7631 87.7266 51.6813C87.741 51.6624 87.7729 51.6546 87.8225 51.6498V41.8376H87.4723C87.4691 41.8014 87.4659 41.7668 87.4643 41.7307C87.5842 41.7149 87.7026 41.6992 87.8225 41.6835V37.846L85.4606 38.6591V49.3206C85.4606 50.7251 84.4563 51.9722 83.0282 52.2836L53.5334 58.455C53.5334 58.455 53.5478 58.4613 53.5526 58.4629C53.487 58.6186 53.463 58.6736 53.439 58.7302C53.3943 58.672 53.3271 58.6186 53.3095 58.5541C53.3047 58.5384 53.3095 58.5195 53.3175 58.5006L41.6645 60.9383V61.3866C41.6165 61.2167 41.5765 61.0799 41.5461 60.9635L34.2364 62.4922C34.246 62.5048 34.2572 62.5174 34.2668 62.5268C34.2204 62.5488 34.1772 62.5803 34.1276 62.5897C34.1116 62.5928 34.0844 62.5504 34.0605 62.5284L1.9414 69.2502V60.7103L0.132751 61.2545V72.5262C0.132751 75.4483 0.70365 77.4834 1.7383 78.8265C1.79108 78.7998 1.84225 78.7746 1.89502 78.7494C1.97818 78.891 2.07733 79.0608 2.19566 79.2637C2.17807 79.2747 2.16048 79.2842 2.14449 79.2952C3.77563 80.9638 6.31509 81.2784 9.45584 80.7908C9.46703 80.7153 9.49422 80.6414 9.51341 80.5675C9.55818 80.5927 9.64134 80.6163 9.64294 80.6446C9.64454 80.6823 9.64294 80.7216 9.63494 80.7625C9.96757 80.7075 10.3066 80.6446 10.652 80.5738L23.7523 77.8042V77.2711C23.9746 77.2884 24.1585 77.301 24.4511 77.323C24.3184 77.5054 24.2672 77.6564 24.1825 77.6768C24.0801 77.702 24.0098 77.7287 23.9634 77.7586L58.9865 70.3542C58.9689 70.3369 58.9513 70.3196 58.9322 70.3008C58.9481 70.2583 58.9561 70.1812 58.9865 70.1718C59.228 70.0916 59.4695 69.9988 59.7189 69.9705C59.7653 69.9658 59.8229 70.0554 59.8485 70.1718L64.1374 69.2643L67.8299 73.333L73.7339 79.8378C73.7755 79.8834 73.8203 79.9243 73.8667 79.9604C73.8763 79.9447 73.8859 79.9306 73.8971 79.9306C73.9882 79.9258 74.0794 79.9494 74.1913 79.9652C74.1561 80.0218 74.1289 80.0815 74.1082 80.1067C74.6758 80.3552 75.3939 80.0941 75.6082 79.4524L77.2953 74.4213C77.2489 74.4323 77.1849 74.382 77.129 74.3584L77.1306 74.3615ZM84.8561 63.6466C84.8337 63.601 84.8017 63.5585 84.7921 63.5097C84.7889 63.4924 84.8337 63.4657 84.8577 63.4437C84.8801 63.4893 84.912 63.5318 84.9216 63.5805C84.9248 63.5978 84.8801 63.6246 84.8561 63.6466ZM85.7052 59.147C85.6605 59.1234 85.6221 59.0888 85.5805 59.0574C85.6109 59.0275 85.6429 58.996 85.6732 58.9661C85.7052 59.0055 85.7388 59.0448 85.7708 59.0841C85.7468 59.1077 85.7132 59.1517 85.7052 59.147ZM86.4792 54.0498C86.4552 53.9617 86.4217 53.8737 86.4153 53.784C86.4137 53.7604 86.4968 53.7305 86.5736 53.6834C86.5896 53.7935 86.6152 53.8847 86.6088 53.9727C86.6072 54.0011 86.5256 54.0247 86.4792 54.0498ZM87.3396 47.1644C87.3172 47.1188 87.2852 47.0764 87.2756 47.0276C87.2724 47.0103 87.3172 46.9836 87.3396 46.96C87.362 47.0056 87.3939 47.0496 87.4035 47.0968C87.4067 47.1141 87.362 47.1408 87.3396 47.1629V47.1644ZM87.5443 46.7885C87.3652 46.6895 87.1861 46.592 86.9878 46.4819C87.3572 46.1657 87.4627 46.5306 87.5443 46.7885ZM86.9318 45.6798C87.0325 45.8386 87.1125 45.9644 87.1956 46.095C86.9254 46.1815 86.7047 46.2161 86.9318 45.6798ZM86.7351 46.7744C86.7591 46.798 86.8023 46.831 86.7991 46.8389C86.7751 46.8829 86.7383 46.9207 86.7063 46.9615C86.6759 46.9317 86.6455 46.9002 86.6135 46.8703C86.6535 46.8389 86.6935 46.8058 86.7335 46.7744H86.7351ZM85.8523 46.9946H86.6487C86.3417 47.3642 86.2921 47.9933 85.6349 47.7227C85.7036 47.4916 85.7724 47.2635 85.8508 46.9946H85.8523ZM86.1626 54.4226C86.1658 54.4398 86.121 54.4666 86.0986 54.4902C86.0762 54.4446 86.0443 54.4021 86.0331 54.3533C86.0299 54.3361 86.0746 54.3093 86.0986 54.2857C86.121 54.3313 86.153 54.3738 86.1626 54.4226ZM85.7452 57.98H86.3561V58.8513C85.8316 58.6909 86.2058 58.0272 85.7452 57.98H85.6189C85.6685 57.9753 85.7084 57.9769 85.7452 57.98ZM85.2735 58.7633C85.1791 58.584 85.0832 58.4063 84.9776 58.2081C85.6045 58.0618 85.2783 58.5604 85.2735 58.7633ZM84.8849 56.1463C84.912 56.173 84.936 56.1966 84.9584 56.2186C84.9121 56.2406 84.8689 56.2721 84.8193 56.2831C84.8017 56.2862 84.7745 56.2422 84.7505 56.2186C84.7953 56.195 84.8401 56.1698 84.8833 56.1463H84.8849ZM84.4707 55.9434C84.4979 55.9701 84.5219 55.9937 84.5442 56.0157C84.4979 56.0377 84.4547 56.0692 84.4051 56.0786C84.3875 56.0818 84.3603 56.0377 84.3364 56.0157C84.3811 55.9906 84.4259 55.967 84.4691 55.9434H84.4707ZM84.234 63.4421C84.2564 63.4641 84.2804 63.4877 84.3076 63.5145C84.2836 63.5569 84.2596 63.601 84.234 63.645C84.2116 63.623 84.1652 63.5947 84.17 63.5789C84.1812 63.5318 84.2116 63.4877 84.234 63.4421ZM83.0091 61.4243C83.033 61.4479 83.0778 61.4809 83.073 61.4888C83.049 61.5328 83.0138 61.5706 82.9819 61.6115C82.9515 61.5816 82.9195 61.5517 82.8891 61.5203C82.9291 61.4888 82.9691 61.4558 83.0091 61.4243ZM83.1338 61.6225C82.8443 61.8065 82.6988 61.8993 82.5341 62.0047C82.3662 61.6115 82.6141 61.6005 83.1338 61.6225ZM81.6418 53.4789C81.7089 53.4962 81.7617 53.5607 81.8209 53.6063C81.7633 53.6299 81.7073 53.6535 81.549 53.718C81.5346 53.6865 81.5042 53.6142 81.4723 53.5418C81.5282 53.5182 81.5938 53.4663 81.6402 53.4789H81.6418ZM81.3012 54.1206C81.3491 54.1316 81.3939 54.1615 81.4403 54.1835C81.4179 54.2055 81.3939 54.2291 81.3667 54.2558C81.3235 54.2323 81.2788 54.2087 81.234 54.1835C81.2564 54.1615 81.2852 54.1159 81.3028 54.1206H81.3012ZM80.6183 53.7793C80.7223 53.7337 80.8454 53.7227 80.9605 53.7195C80.9797 53.7195 81.0389 53.8548 81.0213 53.8768C80.9509 53.957 80.8646 54.0404 80.767 54.075C80.6839 54.1049 80.5767 54.0703 80.3065 54.0545C80.4712 53.9051 80.5352 53.8171 80.6199 53.7793H80.6183ZM79.8939 65.3058C79.9461 65.5448 79.7468 65.646 79.2958 65.6093C79.5709 65.4709 79.7356 65.386 79.8939 65.3058ZM1.06186 71.9883C1.03947 71.9663 1.01549 71.9427 0.9883 71.916C1.01229 71.8735 1.03628 71.8295 1.06186 71.7854C1.08425 71.8074 1.13063 71.8357 1.12743 71.853C1.11623 71.9002 1.08585 71.9443 1.06186 71.9899V71.9883ZM1.68233 69.7487C1.5544 69.8337 1.42487 69.9123 1.29534 69.9925C1.25056 69.939 1.20579 69.884 1.16101 69.8305C1.31613 69.7362 1.46645 69.6339 1.62956 69.5537C1.65835 69.5396 1.73351 69.6151 1.78788 69.6497C1.7543 69.6827 1.72391 69.7236 1.68393 69.7503L1.68233 69.7487ZM1.91101 69.9312C1.86624 69.9076 1.82786 69.873 1.78628 69.8415C1.81666 69.8116 1.84865 69.7802 1.87903 69.7503C1.91101 69.7896 1.9446 69.829 1.97658 69.8683C1.95259 69.8919 1.91901 69.9359 1.91101 69.9312ZM8.13173 72.8407C8.14932 72.8376 8.17651 72.8816 8.1989 72.9036C8.15412 72.9288 8.10935 72.9524 8.06617 72.976C8.03898 72.9492 8.015 72.9256 7.99261 72.9036C8.03898 72.8816 8.08216 72.8502 8.13173 72.8407ZM7.06989 73.6239C7.16105 73.6192 7.2522 73.6428 7.36414 73.6585C7.31616 73.734 7.28738 73.8158 7.26179 73.8142C7.17064 73.8079 7.08109 73.7749 6.98994 73.7513C7.01552 73.7073 7.03951 73.6255 7.06829 73.6239H7.06989ZM2.8897 78.4632C2.87211 78.4664 2.84492 78.4223 2.82253 78.3987C2.86891 78.3767 2.91209 78.3453 2.96166 78.3358C2.97925 78.3327 3.00644 78.3767 3.02882 78.4003C2.98245 78.4223 2.93927 78.4538 2.8897 78.4632ZM5.06935 69.0646C5.06935 69.0882 5.02617 69.1102 5.00218 69.1338C4.95581 69.0929 4.89024 69.0599 4.86626 69.008C4.82628 68.9231 4.81188 68.8256 4.7879 68.7343C4.87745 68.7548 5.00059 68.7501 5.05016 68.8051C5.09653 68.857 5.07415 68.975 5.06935 69.0646ZM5.57948 69.1039C5.56189 69.1071 5.5347 69.063 5.51072 69.0394C5.55709 69.0174 5.60027 68.986 5.64984 68.9765C5.66743 68.9734 5.69462 69.0174 5.71701 69.0394C5.67063 69.0615 5.62745 69.0929 5.57788 69.1039H5.57948ZM6.75326 68.8366C6.77565 68.8145 6.80443 68.7689 6.82043 68.7737C6.8684 68.7847 6.91318 68.8145 6.95955 68.8366C6.93716 68.8586 6.91318 68.8822 6.88599 68.9089C6.84281 68.8853 6.79804 68.8617 6.75326 68.8366ZM7.50486 80.0233C7.41851 79.984 7.27778 79.9195 7.00113 79.7937C7.38066 79.7759 7.54857 79.8524 7.50486 80.0233ZM8.35562 76.9298C8.08056 77.0572 7.85988 77.301 7.57203 77.5274C7.37373 77.2616 7.18183 77.0037 6.92597 76.6609C7.60881 76.7096 8.20529 76.6294 8.80658 76.2299C8.7618 76.7883 8.74421 76.7521 8.35562 76.9314V76.9298ZM9.31031 70.3338C9.28313 70.3071 9.25914 70.2835 9.23675 70.2615C9.28313 70.2394 9.3263 70.208 9.37588 70.197C9.39347 70.1938 9.42065 70.2379 9.44464 70.2615C9.39987 70.285 9.35509 70.3102 9.31191 70.3338H9.31031ZM9.54699 80.3332C9.5214 80.2891 9.49741 80.2451 9.47343 80.2026C9.50061 80.1759 9.5246 80.1523 9.54699 80.1303C9.56938 80.1759 9.60136 80.2184 9.61095 80.2671C9.61415 80.2844 9.56938 80.3112 9.54699 80.3332ZM9.96117 80.3332C9.93558 80.2891 9.9116 80.2451 9.88761 80.2026C9.91479 80.1759 9.93878 80.1523 9.96117 80.1303C9.98356 80.1759 10.0155 80.2184 10.0251 80.2671C10.0283 80.2844 9.98356 80.3112 9.96117 80.3332ZM9.96117 79.9258C9.93878 79.9038 9.91479 79.8802 9.88761 79.8535C9.9116 79.811 9.93558 79.767 9.96117 79.723C9.98356 79.745 10.0299 79.7733 10.0251 79.789C10.0139 79.8362 9.98356 79.8802 9.96117 79.9258ZM9.63974 70.1451C9.95157 70.3542 10.201 70.521 10.4633 70.6987C10.0667 70.7207 9.79219 70.5362 9.63974 70.1451ZM11.2325 75.8273C11.1893 75.8037 11.1445 75.7786 11.0998 75.755C11.1222 75.733 11.1509 75.6873 11.1669 75.6921C11.2149 75.7031 11.2597 75.733 11.3061 75.755C11.2837 75.777 11.2597 75.8006 11.2325 75.8273ZM12.651 75.8572C12.6254 75.8132 12.6014 75.7691 12.5774 75.7267C12.6046 75.6999 12.6286 75.6763 12.651 75.6543C12.6733 75.6999 12.7053 75.7424 12.7149 75.7911C12.7181 75.8084 12.6733 75.8352 12.651 75.8588V75.8572ZM14.0246 67.7891C14.1654 67.8583 14.3029 67.926 14.5028 68.025C14.0806 68.187 13.9319 68.1367 14.0246 67.7891ZM14.9266 72.1959C14.9042 72.1503 14.8722 72.1078 14.8626 72.0591C14.8594 72.0418 14.9042 72.015 14.9282 71.993C14.9505 72.0386 14.9825 72.0811 14.9921 72.1298C14.9953 72.1471 14.9505 72.1739 14.9266 72.1959ZM17.167 72.9713C17.1494 72.9744 17.1222 72.9304 17.0998 72.9083C17.1462 72.8863 17.1894 72.8549 17.2389 72.8454C17.2565 72.8423 17.2837 72.8863 17.3077 72.9099C17.2613 72.9319 17.2181 72.9634 17.1686 72.9728L17.167 72.9713ZM17.41 70.5681C17.3877 70.5225 17.3557 70.4801 17.3461 70.4313C17.3429 70.414 17.3877 70.3873 17.41 70.3652C17.4324 70.4109 17.4644 70.4533 17.474 70.5021C17.4772 70.5194 17.4324 70.5461 17.41 70.5681ZM17.3765 70.1293C17.3525 70.0413 17.3189 69.9532 17.3125 69.8636C17.3109 69.84 17.3941 69.8101 17.4708 69.7629C17.4868 69.873 17.5108 69.9642 17.506 70.0523C17.5044 70.0806 17.4212 70.1042 17.3765 70.1293ZM17.4708 67.7797C17.7347 68.0392 17.8274 68.1304 17.9362 68.2374C17.8178 68.327 17.7011 68.4135 17.5828 68.5016C17.5556 68.327 17.5284 68.154 17.4708 67.7813V67.7797ZM17.9266 69.6528C17.9042 69.6748 17.8802 69.6984 17.853 69.7252C17.8098 69.7016 17.7651 69.678 17.7203 69.6528C17.7427 69.6308 17.7715 69.5852 17.7874 69.5899C17.8354 69.6009 17.8802 69.6308 17.9266 69.6528ZM17.6435 72.7353C17.9186 72.5969 18.0833 72.512 18.2416 72.4318C18.2938 72.6709 18.0945 72.772 17.6435 72.7353ZM19.2363 69.3084C19.2187 69.3115 19.1915 69.2675 19.1675 69.2455C19.2139 69.2235 19.2571 69.192 19.3066 69.1826C19.3242 69.1794 19.3514 69.2235 19.3754 69.2455C19.329 69.2675 19.2843 69.2989 19.2363 69.3084ZM19.7832 78.2886C19.7304 78.3012 19.6505 78.1958 19.5817 78.1439C19.6521 78.0606 19.708 77.9552 19.7976 77.9033C19.8344 77.8813 19.9399 77.9741 20.1046 78.0637C19.9575 78.1722 19.8791 78.265 19.7832 78.2871V78.2886ZM20.0662 69.9249C20.0423 69.8368 20.0087 69.7487 20.0023 69.6591C20.0007 69.6355 20.0838 69.6056 20.1606 69.5584C20.1766 69.6685 20.2022 69.7598 20.1958 69.8478C20.1942 69.8761 20.111 69.8997 20.0662 69.9249ZM21.1313 70.3621C21.0977 70.2772 21.0113 70.1671 21.0385 70.112C21.1761 69.8352 21.4015 69.9422 21.7326 70.0586C21.4815 70.186 21.3056 70.274 21.1313 70.3621ZM21.9165 75.5458C22.1563 75.7188 22.3163 75.8336 22.5433 75.9956C22.2427 75.983 22.0337 75.8331 21.9165 75.5458ZM22.7528 65.4411C22.7352 65.4442 22.708 65.4002 22.6841 65.3781C22.7288 65.353 22.7736 65.3294 22.8168 65.3058C22.844 65.3325 22.868 65.3561 22.8904 65.3781C22.844 65.4002 22.8008 65.4316 22.7512 65.4411H22.7528ZM22.9959 66.4963C22.9703 66.4523 22.9463 66.4083 22.9223 66.3658C22.9495 66.3391 22.9735 66.3155 22.9959 66.2935C23.0183 66.3391 23.0503 66.3815 23.0599 66.4303C23.0631 66.4476 23.0183 66.4743 22.9959 66.4979V66.4963ZM23.4101 69.9548C23.3877 69.9092 23.3557 69.8667 23.3461 69.8179C23.3429 69.8006 23.3877 69.7739 23.4101 69.7503C23.4357 69.7944 23.4597 69.8384 23.4836 69.8808C23.4565 69.9076 23.4325 69.9312 23.4101 69.9532V69.9548ZM24.651 72.1928C24.6286 72.1471 24.5967 72.1047 24.5871 72.0559C24.5839 72.0386 24.6286 72.0119 24.651 71.9899C24.6766 72.0339 24.7006 72.0779 24.7246 72.1204C24.6974 72.1471 24.6734 72.1707 24.651 72.1928ZM25.0284 72.026C24.998 71.7901 24.9741 71.6061 24.9517 71.4221C24.9964 71.4001 25.0428 71.3797 25.0876 71.3576C25.1532 71.496 25.2203 71.6329 25.2859 71.7728C25.2763 71.7823 25.1835 71.8735 25.0284 72.026ZM25.7896 68.824C25.748 68.8554 25.7081 68.8869 25.6665 68.9183C25.6537 68.8759 25.6201 68.8051 25.6329 68.7957C25.6761 68.7626 25.7369 68.7532 25.7896 68.7343V68.8256V68.824ZM25.8856 68.7328C25.8536 68.6384 25.8104 68.5456 25.796 68.4481C25.7912 68.4182 25.868 68.3773 26.0311 68.2295C25.9559 68.4874 25.9208 68.6101 25.8856 68.7328ZM29.7907 75.2108C29.7523 74.7579 29.844 74.5089 30.0658 74.4638C30.1041 74.9167 30.0125 75.1657 29.7907 75.2108ZM30.6479 68.7139C30.4528 68.8507 30.1841 68.8853 29.8531 68.9954C29.8803 69.0693 29.9107 69.1448 29.9202 69.2203C29.925 69.2486 29.8467 69.2895 29.6884 69.4279C29.7603 69.181 29.7955 69.0567 29.8307 68.9356C29.8371 68.9545 29.8435 68.9734 29.8515 68.9923C30.1233 68.7233 30.3248 68.5236 30.5311 68.3176C30.8382 68.3773 30.8414 68.5786 30.6479 68.7139ZM32.0999 70.3605C32.0743 70.3165 32.0503 70.2725 32.0263 70.23C32.0535 70.2033 32.0775 70.1797 32.0999 70.1576C32.1223 70.2033 32.1543 70.2457 32.1639 70.2945C32.1671 70.3118 32.1223 70.3385 32.0999 70.3621V70.3605ZM35.1959 68.5362C35.2199 68.5346 35.2502 68.6164 35.2982 68.6919C35.1863 68.7076 35.0935 68.7328 35.004 68.7265C34.9752 68.7249 34.9512 68.6431 34.9256 68.5991C35.0152 68.5755 35.1047 68.5425 35.1959 68.5362ZM35.1175 71.3246C35.0599 71.2224 34.9608 71.0462 34.8616 70.8701C34.9032 70.8355 34.9432 70.8009 34.9848 70.7663C35.0583 70.8339 35.1239 70.922 35.2103 70.966C35.287 71.0053 35.3878 70.9959 35.6708 71.0337C35.407 71.1721 35.271 71.2428 35.1159 71.3246H35.1175ZM36.6207 71.1453C36.5935 71.1186 36.5695 71.095 36.5471 71.073C36.5935 71.051 36.6367 71.0195 36.6863 71.0085C36.7039 71.0053 36.7311 71.0494 36.755 71.073C36.7103 71.0966 36.6655 71.1217 36.6223 71.1453H36.6207ZM39.3409 65.4772C39.3185 65.4316 39.2865 65.3892 39.2769 65.3404C39.2737 65.3231 39.3185 65.2964 39.3409 65.2743C39.3665 65.3184 39.3905 65.3624 39.4144 65.4049C39.3873 65.4316 39.3633 65.4552 39.3409 65.4772ZM40.1389 70.738C40.1117 70.7113 40.0877 70.6877 40.0653 70.6656C40.1117 70.6436 40.1549 70.6122 40.2044 70.6012C40.222 70.598 40.2492 70.6421 40.2732 70.6656C40.2284 70.6892 40.1836 70.7144 40.1405 70.738H40.1389ZM40.9896 64.0822C40.8569 63.796 40.7545 63.5774 40.553 63.1417C40.8153 63.3132 40.8857 63.3745 40.9672 63.4091C41.0776 63.4578 41.1975 63.4877 41.2855 63.516C41.1927 63.6953 41.1063 63.8589 40.9912 64.0822H40.9896ZM46.5819 64.6626C46.6043 64.7082 46.6362 64.7506 46.6458 64.7994C46.649 64.8167 46.6043 64.8434 46.5819 64.867C46.5595 64.8214 46.5275 64.7789 46.5163 64.7302C46.5131 64.7129 46.5579 64.6861 46.5819 64.6626ZM42.6511 61.6099C42.6287 61.5879 42.5824 61.5596 42.5856 61.5438C42.5968 61.4967 42.6271 61.4526 42.6511 61.407C42.6735 61.429 42.6975 61.4526 42.7247 61.4794C42.7007 61.5218 42.6751 61.5659 42.6511 61.6099ZM43.0717 73.4053C43.0429 73.4038 43.0189 73.322 42.9934 73.2779C43.0829 73.2543 43.1725 73.2213 43.2636 73.215C43.2876 73.2135 43.318 73.2952 43.366 73.3707C43.254 73.3865 43.1613 73.4116 43.0717 73.4053ZM43.2524 69.3241C43.2396 69.2816 43.2044 69.2109 43.2172 69.2014C43.2604 69.1684 43.3212 69.159 43.374 69.1401C43.374 69.17 43.374 69.1999 43.374 69.2313C43.3324 69.2628 43.2924 69.2942 43.2508 69.3257L43.2524 69.3241ZM43.4667 69.1401C43.4363 69.1102 43.4043 69.0788 43.374 69.0489C43.4139 69.0174 43.4539 68.9844 43.4939 68.9529C43.5179 68.9765 43.5611 69.0096 43.5579 69.0174C43.5339 69.0615 43.4987 69.0992 43.4667 69.1401ZM44.9267 72.5985C44.9044 72.5529 44.8724 72.5104 44.8628 72.4617C44.8596 72.4444 44.9044 72.4177 44.9283 72.3956C44.9507 72.4412 44.9827 72.4837 44.9923 72.5325C44.9955 72.5498 44.9507 72.5765 44.9267 72.6001V72.5985ZM45.4449 72.8926C45.4049 72.9241 45.3633 72.9555 45.3217 72.987C45.3089 72.9445 45.2754 72.8737 45.2881 72.8643C45.3313 72.8313 45.3921 72.8218 45.4449 72.803V72.8942V72.8926ZM45.5376 72.8014C45.5072 72.7715 45.4752 72.7401 45.4449 72.7102C45.4848 72.6787 45.5248 72.6457 45.5648 72.6142C45.5888 72.6378 45.632 72.6709 45.6288 72.6787C45.6048 72.7228 45.568 72.7605 45.536 72.8014H45.5376ZM46.6138 71.754C46.5707 71.7304 46.5259 71.7068 46.4811 71.6816C46.5035 71.6596 46.5323 71.614 46.5499 71.6187C46.5979 71.6297 46.6426 71.6596 46.689 71.6816C46.6666 71.7036 46.6426 71.7272 46.6154 71.754H46.6138ZM47.3814 71.9568C47.3543 71.9301 47.3303 71.9065 47.3079 71.8845C47.3543 71.8625 47.3974 71.831 47.447 71.8216C47.4646 71.8184 47.4918 71.8625 47.5142 71.8845C47.4694 71.9081 47.4246 71.9333 47.3814 71.9568ZM47.5845 65.202C47.7397 65.5087 47.8532 65.7336 47.9891 66.0009C47.7013 65.8877 47.5664 65.6214 47.5845 65.202ZM48.6208 71.1375C49.0014 70.9534 49.2333 70.8418 49.5243 70.7018C49.5515 70.8795 49.5675 70.9928 49.5899 71.1375H48.6208ZM50.3095 63.947C50.2359 63.7173 50.1864 63.5648 50.148 63.4484C50.415 63.3776 50.471 63.5208 50.3095 63.947ZM50.5142 66.6961C50.4918 66.6505 50.4598 66.608 50.4486 66.5593C50.4454 66.542 50.4902 66.5152 50.5142 66.4932C50.5366 66.5388 50.5686 66.5813 50.5782 66.63C50.5814 66.6473 50.5366 66.6741 50.5142 66.6961ZM51.7551 63.2377C51.7327 63.2156 51.6864 63.1873 51.6912 63.1716C51.7024 63.1244 51.7327 63.0804 51.7551 63.0348C51.7775 63.0568 51.8015 63.0804 51.8287 63.1071C51.8047 63.1496 51.7791 63.1936 51.7551 63.2377ZM52.5899 71.5731C52.5611 71.5715 52.5371 71.4913 52.5115 71.4457C52.6011 71.4221 52.6906 71.3891 52.7818 71.3828C52.8058 71.3812 52.8362 71.463 52.8841 71.5385C52.7722 71.5542 52.6794 71.5794 52.5899 71.5731ZM55.0654 60.9997C55.043 60.9541 55.011 60.9116 55.0014 60.8629C54.9982 60.8456 55.043 60.8188 55.0654 60.7952C55.0878 60.8408 55.1198 60.8833 55.1294 60.9321C55.1326 60.9494 55.0878 60.9761 55.0654 60.9997ZM55.3021 63.0049C55.2589 62.9813 55.2141 62.9577 55.1693 62.9326C55.1917 62.9105 55.2205 62.8649 55.2381 62.8681C55.2861 62.8791 55.3309 62.909 55.3772 62.9326C55.3548 62.9546 55.3308 62.9782 55.3037 63.0049H55.3021ZM57.3762 66.0481C57.3282 66.0371 57.2834 66.0072 57.237 65.9852C57.2594 65.9632 57.2834 65.9396 57.3106 65.9129C57.3538 65.9365 57.3986 65.9601 57.4433 65.9852C57.4209 66.0072 57.3922 66.0528 57.3762 66.0481ZM57.0851 65.6392C56.9956 65.3734 56.962 65.1564 57.5057 65.3797C57.3442 65.4788 57.2163 65.5574 57.0851 65.6392ZM59.1145 61.0028C58.9673 61.0594 58.833 61.1428 58.6139 61.2545C58.4876 61.0406 58.3964 60.8754 58.2925 60.7166C58.2077 60.5876 58.1086 60.4665 57.9855 60.2998C58.139 60.2448 58.2237 60.1929 58.3101 60.1897C58.4348 60.1834 58.5596 60.2133 58.7259 60.2306C58.6139 60.3517 58.5484 60.4225 58.454 60.5263C58.801 60.6411 59.1304 60.7512 59.5766 60.9006C59.3623 60.9462 59.2312 60.9572 59.1145 61.0013V61.0028ZM69.7872 55.9449C69.8112 56.0016 69.8352 56.0566 69.9008 56.2123C69.8688 56.2265 69.7952 56.2563 69.7217 56.2878C69.6977 56.2312 69.6449 56.1683 69.6577 56.1227C69.6753 56.0566 69.7409 56.0047 69.7872 55.9465V55.9449ZM69.8256 60.1614H69.2435C69.4727 60.0356 69.6668 60.0356 69.8256 60.1614ZM69.1332 66.9005C69.1556 66.9461 69.1875 66.9886 69.1971 67.0374C69.2003 67.0547 69.1556 67.0814 69.1332 67.1034C69.1108 67.0578 69.0788 67.0153 69.0692 66.9666C69.066 66.9493 69.1108 66.9226 69.1332 66.9005ZM69.1332 70.5634C69.1556 70.5854 69.1796 70.609 69.2067 70.6358C69.1827 70.6782 69.1572 70.7223 69.1332 70.7663C69.1108 70.7443 69.0644 70.716 69.0676 70.6987C69.0788 70.6515 69.1092 70.6074 69.1332 70.5618V70.5634ZM60.2371 66.4932C60.2595 66.5152 60.2834 66.5388 60.3106 66.5655C60.2866 66.608 60.2626 66.652 60.2371 66.6961C60.2147 66.6741 60.1683 66.6458 60.1731 66.63C60.1843 66.5828 60.2147 66.5388 60.2371 66.4932ZM59.9428 69.0536C59.9684 68.9294 59.8037 68.5708 60.1731 68.8727C60.2323 68.9215 60.2866 68.975 60.4546 69.1228C60.2019 69.0882 60.0723 69.0693 59.9428 69.052V69.0536ZM60.6385 68.7328C60.6081 68.7029 60.5777 68.6714 60.5457 68.6415C60.5857 68.6101 60.6257 68.5771 60.6656 68.5456C60.6896 68.5692 60.7328 68.6022 60.7296 68.6101C60.7056 68.6541 60.6688 68.6919 60.6369 68.7328H60.6385ZM60.8559 68.1225C60.8335 68.0769 60.8016 68.0345 60.792 67.9857C60.7888 67.9684 60.8335 67.9417 60.8559 67.9181C60.8783 67.9637 60.9103 68.0062 60.9199 68.0549C60.9231 68.0722 60.8783 68.099 60.8559 68.1225ZM61.0622 65.8846C61.0398 65.839 61.0079 65.7965 60.9983 65.7477C60.9951 65.7304 61.0398 65.7037 61.0622 65.6817C61.0878 65.7257 61.1118 65.7697 61.1358 65.8122C61.1086 65.8389 61.0846 65.8625 61.0622 65.8846ZM61.4764 68.1225C61.454 68.1005 61.4076 68.0722 61.4124 68.0549C61.4236 68.0077 61.454 67.9637 61.4764 67.9181C61.4988 67.9401 61.5228 67.9637 61.55 67.9904C61.526 68.0329 61.502 68.0769 61.4764 68.121V68.1225ZM61.4412 67.6775C61.4236 67.6806 61.3965 67.6366 61.3741 67.6146C61.4188 67.5894 61.4636 67.5658 61.5068 67.5422C61.534 67.5689 61.558 67.5925 61.5804 67.6146C61.534 67.6366 61.4908 67.668 61.4412 67.6775ZM63.1331 60.5876C63.1795 60.6285 63.2403 60.6851 63.349 60.7826C63.0964 60.748 62.9668 60.7292 62.8373 60.7119C62.8629 60.5876 62.6982 60.2306 63.0676 60.531C63.3042 60.38 63.4402 60.2951 63.5889 60.1992C63.7408 60.5546 63.5521 60.5971 63.1315 60.5861L63.1331 60.5876ZM64.0622 60.2762C64.0207 60.3077 63.9807 60.3391 63.9391 60.3706C63.9263 60.3281 63.8927 60.2574 63.9055 60.2479C63.9487 60.2149 64.0095 60.2055 64.0622 60.1866V60.2778V60.2762ZM64.155 60.185C64.1246 60.1551 64.0942 60.1237 64.0622 60.0938C64.1022 60.0623 64.1422 60.0293 64.1822 59.9979C64.2062 60.0214 64.2509 60.0545 64.2461 60.0623C64.2222 60.1064 64.1854 60.1441 64.1534 60.185H64.155ZM64.5452 59.537C64.5276 59.5402 64.5004 59.4962 64.478 59.4741C64.5244 59.4521 64.5676 59.4207 64.6172 59.4112C64.6348 59.4081 64.6619 59.4521 64.6859 59.4741C64.6395 59.4962 64.5964 59.5276 64.5468 59.537H64.5452ZM64.7179 64.6044C64.6044 64.219 64.8234 64.2584 65.1289 64.3873C64.9946 64.4581 64.8602 64.5304 64.7179 64.6044ZM66.2931 61.2749C65.9285 60.8251 66.2179 60.6096 66.4578 60.3753C66.8272 60.0136 67.195 59.6534 67.897 59.8626C67.2094 60.2495 66.5953 60.5798 66.2947 61.2749H66.2931ZM67.1294 68.0549C67.1326 68.0722 67.0879 68.099 67.0639 68.1225C67.0415 68.0769 67.0095 68.0345 66.9999 67.9857C66.9967 67.9684 67.0415 67.9417 67.0655 67.9181C67.0879 67.9637 67.1198 68.0062 67.1294 68.0549ZM67.0942 68.5C67.0511 68.4764 67.0063 68.4528 66.9615 68.4277C66.9839 68.4056 67.0127 68.36 67.0303 68.3647C67.0783 68.3758 67.123 68.4056 67.1694 68.4277C67.147 68.4497 67.123 68.4733 67.0958 68.5H67.0942ZM67.582 68.0801C67.5372 68.0848 67.494 68.0895 67.4509 68.0942C67.3789 67.8615 67.3053 67.6287 67.227 67.3739C67.2222 67.3771 67.2766 67.3094 67.3213 67.3142C67.4109 67.3236 67.566 67.3676 67.5708 67.4101C67.5964 67.6303 67.582 67.8552 67.582 68.0785V68.0801ZM67.8922 72.3956C67.8698 72.3736 67.8458 72.35 67.8187 72.3233C67.8427 72.2808 67.8666 72.2368 67.8922 72.1928C67.9146 72.2148 67.961 72.2431 67.9562 72.2604C67.945 72.3076 67.9146 72.3516 67.8922 72.3972V72.3956ZM68.5127 67.105C68.4903 67.083 68.4439 67.0547 68.4487 67.0389C68.4599 66.9918 68.4903 66.9477 68.5127 66.9021C68.5351 66.9241 68.5591 66.9477 68.5863 66.9745C68.5623 67.0169 68.5367 67.061 68.5127 67.105ZM68.7798 72.2997C68.703 72.1314 68.6294 72.0371 68.6294 71.9411C68.6294 71.8892 68.7942 71.7807 68.8149 71.7949C68.9013 71.8562 68.9829 71.9443 69.0196 72.0402C69.0324 72.0748 68.9141 72.1582 68.7798 72.2997ZM68.9957 71.6785C69.0708 71.4205 69.106 71.2979 69.1412 71.1752C69.1731 71.2696 69.2163 71.3624 69.2307 71.4599C69.2355 71.4897 69.1588 71.5306 68.9957 71.6785ZM69.2371 71.1752C69.3171 71.1076 69.3906 71.0289 69.4802 70.9786C69.5074 70.9629 69.5809 71.0274 69.7265 71.106C69.5074 71.1375 69.3714 71.1563 69.2371 71.1752ZM70.0607 60.3879C69.9951 60.3989 69.9264 60.391 69.8576 60.391V60.2605C69.8576 60.5577 69.832 60.7307 69.8672 60.8912C69.888 60.984 70.0079 61.0547 69.9455 61.2419C69.7696 61.1302 69.5921 61.0186 69.3571 60.8707C69.525 60.6647 69.6593 60.5027 69.856 60.2605V60.1866C69.9232 60.1866 69.9983 60.1693 70.0575 60.1913C70.1231 60.2165 70.1758 60.2778 70.235 60.3234C70.1774 60.3454 70.1199 60.3769 70.0591 60.3879H70.0607ZM70.7899 60.1866C70.7675 60.1646 70.7211 60.1363 70.7259 60.119C70.7371 60.0718 70.7675 60.0277 70.7899 59.9821C70.8123 60.0041 70.8363 60.0277 70.8635 60.0545C70.8395 60.0969 70.8155 60.141 70.7899 60.185V60.1866ZM71.0298 71.7524C70.985 71.6942 70.9178 71.6407 70.9002 71.5762C70.8874 71.5306 70.9402 71.4662 70.9642 71.4111C71.0378 71.4426 71.1113 71.4725 71.1433 71.4866C71.0778 71.6423 71.0538 71.6973 71.0298 71.754V71.7524ZM71.6694 75.6512H71.5655V75.2438H71.6694V75.6512ZM72.8592 68.3254C72.8368 68.3034 72.7904 68.2751 72.7952 68.2578C72.8064 68.2106 72.8368 68.1666 72.8592 68.121C72.8816 68.143 72.9056 68.1666 72.9328 68.1933C72.9088 68.2358 72.8848 68.2798 72.8592 68.3239V68.3254ZM73.5149 68.0832C73.4669 68.0722 73.4221 68.0423 73.3757 68.0203C73.3981 67.9983 73.4221 67.9747 73.4493 67.948C73.4925 67.9716 73.5373 67.9952 73.582 68.0203C73.5596 68.0423 73.5309 68.0879 73.5133 68.0832H73.5149ZM74.3512 70.6798C74.3608 70.8654 74.2862 70.9388 74.1273 70.9C74.1833 70.8449 74.2889 70.7411 74.3512 70.6798ZM74.5127 79.5154C74.4903 79.4933 74.4664 79.4697 74.4392 79.443C74.4632 79.4005 74.4872 79.3565 74.5127 79.3125C74.5351 79.3345 74.5815 79.3628 74.5767 79.3785C74.5655 79.4257 74.5351 79.4697 74.5127 79.5154ZM74.3064 79.1898C74.2425 78.9948 74.2137 78.8768 74.1625 78.7667C74.1289 78.696 74.0634 78.6409 73.9738 78.5324H74.6902C74.5463 78.7778 74.4456 78.9523 74.3064 79.1898ZM74.6503 67.5485V66.5797C74.815 66.8769 74.9077 67.0452 75.0117 67.2308C74.9381 67.2953 74.8406 67.3802 74.6503 67.5485ZM78.2388 55.7075C78.2628 55.7515 78.2883 55.7955 78.3123 55.838C78.2851 55.8647 78.2612 55.8883 78.2388 55.9103C78.2164 55.8647 78.1844 55.8207 78.1732 55.7735C78.17 55.7562 78.2148 55.7295 78.2388 55.7059V55.7075ZM77.4552 57.4516C77.4648 57.6372 77.3902 57.7106 77.2313 57.6718C77.2873 57.6168 77.3928 57.5129 77.4552 57.4516ZM75.445 59.8783C75.4898 59.8532 75.5346 59.8296 75.5778 59.806C75.605 59.8327 75.629 59.8563 75.6513 59.8783C75.605 59.9003 75.5618 59.9318 75.5122 59.9412C75.4946 59.9444 75.4674 59.9003 75.445 59.8783ZM75.549 60.3863C75.5266 60.3643 75.4802 60.336 75.485 60.3203C75.4962 60.2731 75.5266 60.229 75.549 60.1834C75.5714 60.2055 75.5954 60.229 75.6226 60.2558C75.5986 60.2982 75.5746 60.3423 75.549 60.3863ZM75.7201 65.1045C75.7681 65.1155 75.8129 65.1454 75.8592 65.1674C75.8368 65.1894 75.8129 65.213 75.7857 65.2397C75.7425 65.2162 75.6977 65.1926 75.6529 65.1674C75.6753 65.1454 75.7041 65.0998 75.7217 65.1045H75.7201ZM75.8113 71.9726C75.7585 71.9726 75.6481 71.8106 75.6625 71.7901C75.7249 71.7052 75.8145 71.625 75.912 71.5888C75.9472 71.5762 76.0319 71.6926 76.1759 71.8247C76.0048 71.9002 75.9088 71.9726 75.8113 71.9726ZM76.4445 72.1204C76.4237 72.144 76.3981 72.1629 76.3374 72.2163C76.2926 72.0858 76.2686 72.0528 76.275 72.0276C76.3182 71.8672 76.1423 71.6061 76.4765 71.5794C76.5325 71.5747 76.6204 71.603 76.6444 71.6439C76.7867 71.8814 76.5661 71.982 76.4429 72.1188L76.4445 72.1204ZM77.2041 65.677C77.2265 65.699 77.2729 65.7273 77.2681 65.743C77.2569 65.7902 77.2265 65.8342 77.2041 65.8798C77.1817 65.8578 77.1577 65.8342 77.1306 65.8075C77.1545 65.765 77.1785 65.721 77.2041 65.677Z" fill="#36454F"/>
</g>
<g id="Group_2">
<path id="Vector_6" d="M45.4448 51.0459L43.1708 54.3738L39.8398 52.0855L37.1436 55.8804L37.5706 56.162C37.633 56.1305 37.6905 56.1006 37.7481 56.0723C37.7705 56.1761 37.7865 56.25 37.7817 56.3004L41.0024 58.4267L43.3292 55.2026L44.1063 55.7326C44.1015 55.7216 44.0951 55.709 44.092 55.698C44.0888 55.6807 44.1335 55.654 44.1559 55.6319C44.1815 55.676 44.2055 55.72 44.2295 55.7625C44.2167 55.7751 44.2071 55.7845 44.1959 55.7955L46.6058 57.439L49.302 53.6959L45.4432 51.0443L45.4448 51.0459ZM39.5727 53.5654C39.5487 53.4773 39.5152 53.3892 39.5088 53.2996C39.5072 53.276 39.5903 53.2461 39.6671 53.1989C39.6831 53.309 39.7087 53.4003 39.7023 53.4883C39.7007 53.5166 39.6175 53.5402 39.5727 53.5654ZM40.6378 54.0026C40.6042 53.9177 40.5178 53.8076 40.545 53.7525C40.6825 53.4757 40.908 53.5827 41.2391 53.6991C40.988 53.8265 40.8121 53.9145 40.6378 54.0026ZM44.5333 55.6681C44.5029 55.4322 44.4789 55.2482 44.4566 55.0642C44.5013 55.0422 44.5477 55.0217 44.5925 54.9997C44.6581 55.1381 44.7252 55.2749 44.7908 55.4149C44.7812 55.4243 44.6884 55.5156 44.5333 55.6681ZM45.2945 52.4661C45.2529 52.4975 45.213 52.529 45.1714 52.5604C45.1586 52.518 45.125 52.4472 45.1378 52.4377C45.181 52.4047 45.2417 52.3953 45.2945 52.3764V52.4676V52.4661ZM45.3905 52.3748C45.3585 52.2805 45.3153 52.1877 45.3009 52.0902C45.2961 52.0603 45.3729 52.0194 45.536 51.8716C45.4608 52.1295 45.4256 52.2522 45.3905 52.3748Z" fill="#F15D2A"/>
<path id="Vector_7" d="M88 29.4791L84.1412 26.8275L81.8672 30.1554L78.5362 27.8671L75.84 31.6621L79.6988 34.2099L82.0256 30.9858L85.3038 33.2222L88 29.4791ZM86.9862 29.5876C87.0117 29.6317 87.0357 29.6757 87.0597 29.7182C87.0325 29.7449 87.0085 29.7685 86.9862 29.7905C86.9638 29.7449 86.9318 29.7025 86.9222 29.6537C86.919 29.6364 86.9638 29.6097 86.9862 29.5876ZM85.5741 28.8123C85.5917 28.8091 85.6189 28.8532 85.6413 28.8752C85.5965 28.9004 85.5517 28.924 85.5085 28.9475C85.4813 28.9208 85.4574 28.8972 85.435 28.8752C85.4813 28.8532 85.5245 28.8217 85.5741 28.8123ZM77.9861 30.8993C77.9461 30.9308 77.9045 30.9622 77.863 30.9937C77.8502 30.9512 77.8166 30.8804 77.8294 30.871C77.8726 30.838 77.9333 30.8285 77.9861 30.8096V30.9009V30.8993ZM78.0549 30.937C77.9093 30.6414 77.8278 30.4762 77.7046 30.2262C77.9733 30.2136 78.1588 30.2042 78.3203 30.1963C78.5506 30.6367 78.1188 30.6304 78.0549 30.9386V30.937ZM78.3043 28.5638C78.2755 28.5622 78.2516 28.4804 78.226 28.4364C78.3155 28.4128 78.4051 28.3798 78.4962 28.3735C78.5202 28.3719 78.5506 28.4537 78.5986 28.5292C78.4866 28.5449 78.3939 28.5701 78.3043 28.5638ZM80.9573 30.9827C80.9301 30.9559 80.9062 30.9323 80.8838 30.9103C80.9301 30.8883 80.9733 30.8568 81.0229 30.8474C81.0405 30.8443 81.0677 30.8883 81.0917 30.9103C81.0469 30.9355 81.0021 30.9591 80.9589 30.9827H80.9573Z" fill="#F15D2A"/>
<path id="Vector_8" d="M17.4852 41.0323L13.6264 38.3807L11.3524 41.7086L8.41637 39.6908C8.41637 39.6908 8.42276 39.7018 8.42596 39.7065C8.18929 39.7868 7.99579 39.8166 8.09653 39.4722L8.02137 39.4203L5.3252 43.2153L9.18396 45.7631L11.5107 42.539L14.789 44.7754L17.4852 41.0323ZM14.5715 43.6273C14.5939 43.6494 14.6179 43.673 14.6451 43.6997C14.6211 43.7422 14.5971 43.7862 14.5715 43.8302C14.5491 43.8082 14.5028 43.7799 14.5076 43.7626C14.5187 43.7154 14.5491 43.6714 14.5715 43.6258V43.6273ZM9.46062 42.6019C9.38545 42.5547 9.3007 42.5264 9.3023 42.5013C9.30869 42.4116 9.34228 42.3236 9.36626 42.2355C9.41104 42.2606 9.4942 42.2842 9.4958 42.3125C9.50059 42.4022 9.47661 42.4918 9.46062 42.6019ZM10.0203 43.22C9.99473 43.176 9.97075 43.1319 9.94676 43.0895C9.97394 43.0627 9.99793 43.0391 10.0203 43.0171C10.0427 43.0627 10.0747 43.1052 10.0843 43.154C10.0875 43.1713 10.0427 43.198 10.0203 43.22ZM11.055 41.9996C11.0326 41.954 11.0006 41.9115 10.991 41.8627C10.9878 41.8454 11.0326 41.8187 11.055 41.7951C11.0806 41.8392 11.1045 41.8832 11.1285 41.9257C11.1013 41.9524 11.0774 41.976 11.055 41.998V41.9996ZM11.3652 42.2937C11.3252 42.3251 11.2837 42.3566 11.2421 42.388C11.2293 42.3456 11.1957 42.2748 11.2085 42.2654C11.2517 42.2323 11.3124 42.2229 11.3652 42.204V42.2952V42.2937ZM11.458 42.2025C11.4276 42.1726 11.3972 42.1427 11.3652 42.1112C11.4052 42.0798 11.4452 42.0468 11.4851 42.0153C11.5091 42.0389 11.5523 42.0719 11.5491 42.0798C11.5251 42.1238 11.4899 42.1616 11.458 42.2025ZM13.2074 39.0586C13.321 38.9579 13.4169 38.873 13.5545 38.7519C13.6648 38.8997 13.7815 39.0554 13.8983 39.2111C13.8727 39.2473 13.8455 39.2851 13.8199 39.3212C13.6264 39.2379 13.4313 39.1545 13.2074 39.0586ZM13.9526 42.6082C13.9303 42.5626 13.8983 42.5201 13.8871 42.4714C13.8839 42.4541 13.9287 42.4274 13.9526 42.4053C13.975 42.4509 14.007 42.4934 14.0166 42.5422C14.0198 42.5595 13.975 42.5862 13.9526 42.6082ZM14.5379 44.1982C14.5203 44.2014 14.4932 44.1574 14.4708 44.1338C14.5155 44.1102 14.5603 44.085 14.6035 44.0614C14.6307 44.0882 14.6547 44.1117 14.6771 44.1338C14.6307 44.1558 14.5875 44.1872 14.5379 44.1982Z" fill="#F15D2A"/>
</g>
</g>
<defs>
<clipPath id="clip0_848_1115">
<rect width="88" height="81" fill="white"/>
</clipPath>
</defs>
</svg>
