<svg width="62" height="62" viewBox="0 0 62 62" fill="none" xmlns="http://www.w3.org/2000/svg">
<g id="vuesax/outline/gallery-add">
<g id="gallery-add">
<path id="Vector" d="M23.25 27.7708C19.3233 27.7708 16.1458 24.5933 16.1458 20.6667C16.1458 16.74 19.3233 13.5625 23.25 13.5625C27.1766 13.5625 30.3541 16.74 30.3541 20.6667C30.3541 24.5933 27.1766 27.7708 23.25 27.7708ZM23.25 17.4375C21.4675 17.4375 20.0208 18.8842 20.0208 20.6667C20.0208 22.4492 21.4675 23.8958 23.25 23.8958C25.0325 23.8958 26.4791 22.4492 26.4791 20.6667C26.4791 18.8842 25.0325 17.4375 23.25 17.4375Z" fill="#D1D1D6"/>
<path id="Vector_2" d="M38.75 58.7708H23.25C9.22252 58.7708 3.22919 52.7775 3.22919 38.75V23.25C3.22919 9.22249 9.22252 3.22916 23.25 3.22916H33.5834C34.6425 3.22916 35.5209 4.10749 35.5209 5.16666C35.5209 6.22582 34.6425 7.10416 33.5834 7.10416H23.25C11.3409 7.10416 7.10419 11.3408 7.10419 23.25V38.75C7.10419 50.6592 11.3409 54.8958 23.25 54.8958H38.75C50.6592 54.8958 54.8959 50.6592 54.8959 38.75V25.8333C54.8959 24.7742 55.7742 23.8958 56.8334 23.8958C57.8925 23.8958 58.7709 24.7742 58.7709 25.8333V38.75C58.7709 52.7775 52.7775 58.7708 38.75 58.7708Z" fill="#D1D1D6"/>
<path id="Vector_3" d="M54.8958 14.8542H40.6875C39.6283 14.8542 38.75 13.9758 38.75 12.9167C38.75 11.8575 39.6283 10.9792 40.6875 10.9792H54.8958C55.955 10.9792 56.8333 11.8575 56.8333 12.9167C56.8333 13.9758 55.955 14.8542 54.8958 14.8542Z" fill="#D1D1D6"/>
<path id="Vector_4" d="M47.7917 21.9583C46.7325 21.9583 45.8542 21.08 45.8542 20.0208V5.8125C45.8542 4.75333 46.7325 3.875 47.7917 3.875C48.8509 3.875 49.7292 4.75333 49.7292 5.8125V20.0208C49.7292 21.08 48.8509 21.9583 47.7917 21.9583Z" fill="#D1D1D6"/>
<path id="Vector_5" d="M6.8975 50.8917C6.2775 50.8917 5.6575 50.5817 5.29584 50.0392C4.70167 49.1608 4.93417 47.9467 5.8125 47.3525L18.5483 38.8017C21.3383 36.9417 25.1875 37.1483 27.7192 39.2925L28.5717 40.0417C29.8633 41.1525 32.0592 41.1525 33.325 40.0417L44.0717 30.8192C46.8358 28.4683 51.1242 28.4683 53.8883 30.8192L58.0992 34.4358C58.9 35.1333 59.0033 36.3475 58.3058 37.1742C57.6083 37.975 56.3942 38.0783 55.5675 37.3808L51.3567 33.7642C50.065 32.6533 47.8692 32.6533 46.6033 33.7642L35.8567 42.9867C33.1183 45.3375 28.8042 45.3375 26.04 42.9867L25.1875 42.2375C23.9992 41.23 22.0358 41.1267 20.7183 42.0308L8.00834 50.5817C7.64667 50.7883 7.25917 50.8917 6.8975 50.8917Z" fill="#D1D1D6"/>
</g>
</g>
</svg>
