<svg width="20" height="20" viewBox="0 0 20 20" fill="none" xmlns="http://www.w3.org/2000/svg">
<g id="copy" clip-path="url(#clip0_707_3625)">
<path id="Vector" d="M16.6667 7.5H9.16667C8.24619 7.5 7.5 8.24619 7.5 9.16667V16.6667C7.5 17.5871 8.24619 18.3333 9.16667 18.3333H16.6667C17.5871 18.3333 18.3333 17.5871 18.3333 16.6667V9.16667C18.3333 8.24619 17.5871 7.5 16.6667 7.5Z" stroke="white" stroke-width="1.66667" stroke-linecap="round" stroke-linejoin="round"/>
<path id="Vector_2" d="M4.16666 12.5H3.33332C2.8913 12.5 2.46737 12.3244 2.15481 12.0119C1.84225 11.6993 1.66666 11.2754 1.66666 10.8334V3.33335C1.66666 2.89133 1.84225 2.4674 2.15481 2.15484C2.46737 1.84228 2.8913 1.66669 3.33332 1.66669H10.8333C11.2754 1.66669 11.6993 1.84228 12.0118 2.15484C12.3244 2.4674 12.5 2.89133 12.5 3.33335V4.16669" stroke="white" stroke-width="1.66667" stroke-linecap="round" stroke-linejoin="round"/>
</g>
<defs>
<clipPath id="clip0_707_3625">
<rect width="20" height="20" fill="white"/>
</clipPath>
</defs>
</svg>
