<svg width="16" height="17" viewBox="0 0 16 17" fill="none" xmlns="http://www.w3.org/2000/svg">
<g id="Group 1">
<circle id="Ellipse 1" cx="7.99999" cy="8.66668" r="8" fill="#F15D2A"/>
<path id="Vector" d="M5.94345 11.5364C5.94345 11.8553 6.0899 12.1712 6.38683 12.2874C6.60616 12.3732 6.84046 12.4194 7.07874 12.4222H10.5792C10.9441 12.4234 11.241 12.1287 11.2423 11.7637C11.2429 11.5803 11.1672 11.4048 11.0333 11.2793C11.3947 11.2403 11.656 10.9157 11.6169 10.5543C11.6 10.3974 11.5272 10.2517 11.4118 10.144C11.7732 10.1054 12.0349 9.7811 11.9962 9.4197C11.9725 9.19782 11.838 9.00307 11.6389 8.90236C11.994 8.68183 12.103 8.21519 11.8825 7.86009C11.7448 7.63835 11.5025 7.50322 11.2415 7.50254H8.59246C8.80035 6.9562 8.92782 6.38257 8.97089 5.7996C8.97089 5.09004 8.35593 4.47508 8.02482 4.47508C7.82061 4.47806 7.62232 4.54416 7.45717 4.6643V5.98882L6.32187 8.44863C6.08995 8.5646 5.94345 8.80165 5.94345 9.06095V11.5364Z" fill="white"/>
<rect id="Rectangle 2" x="3.30956" y="8.18377" width="2.27059" height="4.54118" rx="1" fill="white"/>
</g>
</svg>
