<svg width="17" height="17" viewBox="0 0 17 17" fill="none" xmlns="http://www.w3.org/2000/svg">
<g id="Capa_1" clip-path="url(#clip0_748_12)">
<path id="Vector" d="M13.3999 15.6667H7.23322C6.42494 15.6602 5.64047 15.3922 4.99722 14.9027C4.86932 14.7703 4.87301 14.5593 5.00541 14.4314C5.1346 14.3066 5.33938 14.3066 5.46857 14.4314C5.98679 14.7929 6.60141 14.991 7.23322 15H13.3999C13.86 14.9997 14.2329 14.6268 14.2332 14.1667C14.2331 13.9377 14.1377 13.7192 13.9699 13.5634C13.8358 13.4372 13.8293 13.2263 13.9554 13.0922C14.0095 13.0347 14.0822 12.9983 14.1605 12.9894C14.6142 12.9414 14.9431 12.5348 14.8951 12.0811C14.8742 11.883 14.7824 11.6991 14.6365 11.5634C14.5024 11.4372 14.496 11.2263 14.6221 11.0922C14.6761 11.0347 14.7488 10.9983 14.8272 10.9894C15.2809 10.9419 15.6102 10.5355 15.5627 10.0818C15.5333 9.80101 15.3625 9.55469 15.1098 9.42866C14.9463 9.34423 14.8821 9.14319 14.9665 8.97957C14.9943 8.92569 15.0363 8.88044 15.0878 8.84866C15.5566 8.55657 15.6998 7.93982 15.4077 7.4711C15.2265 7.18035 14.9091 7.0026 14.5665 7.00001H9.89988C9.71579 6.99991 9.56663 6.8506 9.56672 6.66651C9.56676 6.62601 9.57413 6.58585 9.58857 6.54801C9.93947 5.62316 10.1565 4.65291 10.2332 3.66669C10.2332 2.57469 9.26522 1.66669 8.89988 1.66669C8.66607 1.67048 8.43691 1.73257 8.23322 1.84735V4.00001C8.23316 4.04832 8.22272 4.09607 8.20257 4.14001L6.20257 8.47335C6.17082 8.54185 6.11676 8.59757 6.04922 8.63135L5.38257 8.96469C5.21782 9.04698 5.01754 8.98013 4.93522 8.81535C4.85291 8.65057 4.91979 8.45032 5.08457 8.36801L5.64657 8.08666L7.56657 3.92732V1.66669C7.56651 1.56526 7.61263 1.46932 7.69191 1.40604C8.04257 1.14841 8.46482 1.00648 8.89991 1.00004C9.67126 1.00004 10.8999 2.22069 10.8999 3.66669C10.8497 4.57641 10.6701 5.47432 10.3666 6.33335H14.5666C15.487 6.33335 16.2332 7.07954 16.2332 8.00001C16.2343 8.41366 16.0795 8.81254 15.7999 9.11735C16.3802 9.70132 16.3772 10.6452 15.7933 11.2255C15.6811 11.3369 15.5519 11.4299 15.4106 11.5007C15.7768 12.2372 15.4788 13.1312 14.7439 13.5007C14.8473 13.7077 14.9007 13.936 14.8999 14.1674C14.8984 14.9951 14.2276 15.6656 13.3999 15.6667Z" fill="black"/>
<rect id="Rectangle 2" x="0.9" y="8.26668" width="4" height="7.2" rx="1.6" stroke="black" stroke-width="0.8"/>
</g>
<defs>
<clipPath id="clip0_748_12">
<rect width="16" height="16" fill="white" transform="translate(0.5 0.666687)"/>
</clipPath>
</defs>
</svg>
