<svg width="16" height="16" viewBox="0 0 16 16" fill="none" xmlns="http://www.w3.org/2000/svg">
<g id="Group 770601">
<path id="Vector" d="M4.84926 13.894C4.84926 14.2129 4.99717 14.5209 5.27833 14.6713C5.78755 14.9438 6.35704 15.0913 6.93945 15.0981H13.3842C14.056 15.1004 14.6026 14.5577 14.605 13.8858C14.6061 13.548 14.4668 13.2249 14.2203 12.9939C14.8856 12.9221 15.3666 12.3245 15.2947 11.6592C15.2635 11.3702 15.1295 11.1021 14.917 10.9037C15.5824 10.8326 16.0642 10.2356 15.993 9.57023C15.9494 9.16173 15.7017 8.80316 15.3351 8.61775C15.9889 8.21173 16.1897 7.3526 15.7837 6.69882C15.5301 6.29058 15.0841 6.04178 14.6035 6.04054H9.72637C10.1091 5.03467 10.3438 3.97856 10.4231 2.90525C10.4231 1.59887 9.29089 0.466675 8.68127 0.466675C8.3053 0.472162 7.94023 0.59385 7.63617 0.815052V3.25362L5.54598 7.78239L5.40203 7.85437C5.06325 8.02377 4.84926 8.37002 4.84926 8.74879V13.894Z" fill="#F15D2A"/>
<rect id="Rectangle 3" y="7.29477" width="4.18039" height="8.36078" rx="1" fill="#F15D2A"/>
</g>
</svg>
