<svg width="16" height="18" viewBox="0 0 16 18" fill="none" xmlns="http://www.w3.org/2000/svg">
<g id="Share" clip-path="url(#clip0_899_355)">
<g id="Group">
<path id="Vector" d="M0.5 16.5667H0.3L0 16.2667V12.2667C0 7.86669 3.4 4.16669 7.9 3.76669V1.06669L8.5 0.766693L8.8 0.966693L16 6.76669V6.96669L15.9 7.26669L15.8 7.36669L8.6 13.0667H8.4L8.1 12.8667L7.9 12.6667V12.4667V10.2667C5.1 10.4667 2.6 12.2667 1.5 14.8667L0.8 16.5667H0.5ZM8.9 2.36669V4.66669L8 4.76669C4 5.16669 1 8.36669 1 12.2667V13.7667C2.3 11.1667 4.9 9.46669 7.9 9.26669L8.9 9.16669V11.5667L14.7 6.96669L8.9 2.36669Z" fill="black"/>
</g>
</g>
<defs>
<clipPath id="clip0_899_355">
<rect width="16" height="17" fill="white" transform="translate(0 0.166687)"/>
</clipPath>
</defs>
</svg>
